<svg width="20" height="20" viewBox="0 0 20 20" fill="none" xmlns="http://www.w3.org/2000/svg">
<rect width="20" height="20" fill="white"/>
<circle cx="10" cy="10" r="10" fill="#FF9900"/>
<path fill-rule="evenodd" clip-rule="evenodd" d="M13.9062 12.5186C14.2714 12.476 14.8518 12.5023 14.966 12.6435H14.9659C15.0528 12.7511 14.9631 13.2344 14.816 13.5809C14.6679 13.9255 14.4472 14.169 14.3253 14.263C14.2017 14.3571 14.1108 14.3207 14.1766 14.1794C14.2447 14.0382 14.6176 13.1625 14.4698 12.9786C14.3329 12.8087 13.7119 12.8702 13.4234 12.8988C13.4019 12.9009 13.3823 12.9029 13.3649 12.9045C13.3039 12.9097 13.2548 12.9149 13.215 12.9192C13.0908 12.9323 13.0577 12.9358 13.0391 12.8997C12.9914 12.7722 13.5404 12.5599 13.9062 12.5186ZM5.2802 12.6602C6.97334 13.6404 9.59418 15.1576 13.7714 13.2699H13.7714C13.9514 13.1986 14.0772 13.3177 13.8991 13.5337C13.7197 13.7515 12.2861 15 9.87635 15C7.46821 15 5.6233 13.4378 5.06035 12.7897C4.90615 12.6215 5.08387 12.5455 5.18844 12.6071C5.21872 12.6246 5.2493 12.6423 5.2802 12.6602Z" fill="white"/>
<path fill-rule="evenodd" clip-rule="evenodd" d="M12.0456 12.3893C11.9591 12.4668 11.8341 12.4723 11.7367 12.4206C11.3714 12.1161 11.2589 11.9489 11.0898 11.6976C11.058 11.6504 11.0243 11.6003 10.9865 11.5457C10.2694 12.2804 9.76186 12.5 8.83146 12.5C7.73188 12.5 6.875 11.8188 6.875 10.4547C6.875 9.38964 7.45057 8.66417 8.26876 8.30978C8.86393 8.04661 9.65689 7.96518 10.3441 7.89462C10.4765 7.88103 10.6049 7.86784 10.7272 7.85383V7.68399C10.7272 7.652 10.7275 7.61941 10.7277 7.58639C10.7299 7.29735 10.7324 6.97521 10.5691 6.73335C10.4091 6.49153 10.1039 6.39184 9.83538 6.39184C9.3371 6.39184 8.89211 6.64841 8.78363 7.18003C8.76154 7.2982 8.67514 7.4145 8.55747 7.42003L7.28871 7.28345C7.18208 7.25941 7.06441 7.17268 7.09383 7.00836C7.38619 5.4652 8.7744 5 10.0174 5C10.6536 5 11.4847 5.16984 11.9867 5.65349C12.5716 6.20158 12.5675 6.91815 12.563 7.70282C12.5626 7.77172 12.5622 7.84115 12.5622 7.91103V9.95632C12.5622 10.5051 12.7645 10.7787 12.9779 11.0675C13.0036 11.1022 13.0294 11.1371 13.055 11.1728C13.1396 11.2909 13.158 11.4331 13.0513 11.5217C12.7847 11.745 12.3103 12.1604 12.0492 12.393L12.0456 12.3893ZM10.7273 9.25995C10.7272 9.23689 10.7272 9.21366 10.7272 9.19026V8.90599C9.78205 8.90599 8.78363 9.10902 8.78363 10.2277C8.78363 10.7944 9.07599 11.1783 9.57799 11.1783C9.94573 11.1783 10.2749 10.9513 10.4827 10.5821C10.7283 10.1488 10.7278 9.74067 10.7273 9.25995Z" fill="black"/>
</svg>
