<svg width="660" height="276" viewBox="0 0 660 276" fill="none" xmlns="http://www.w3.org/2000/svg">
<g clip-path="url(#clip0_0_5442)">
<mask id="mask0_0_5442" style="mask-type:luminance" maskUnits="userSpaceOnUse" x="0" y="0" width="660" height="276">
<rect width="660" height="276" fill="white"/>
</mask>
<g mask="url(#mask0_0_5442)">
<path fill-rule="evenodd" clip-rule="evenodd" d="M-337 318.813L-323.699 265.19L-307.785 242.324L-290.11 258.294L-276.855 264.463L-261.824 239.057L-246.797 250.309L-230.003 280.071L-214.976 265.19L-199.949 320.538L-189.759 336L-182.94 237.921L-179.198 151.959L-166.954 135.572L-156.708 175.54L-140.726 182.799L-125.699 175.177L-108.908 191.509C-108.908 191.509 -94.7578 214.739 -94.7578 214.013C-94.7578 213.287 -77.9666 202.036 -77.9666 202.036L-62.9432 220.545L-47.9164 219.819L-33.7701 198.043L-17.8593 208.932L0.699799 213.649L13.0783 198.769L28.989 213.287L45.7803 198.042L59.0392 190.783H104.161L120.037 145.415L136.829 168.281L165.118 153.037L180.141 137.793L196.052 182.436L209.314 204.939H227.954L242.02 197.68L257.924 153.398L273.838 137.067L287.1 109.482L302.127 93.8751L316.267 108.393L351.62 117.103L361.347 129.445L379.026 137.43L394.933 124.725L407.312 138.156L421.204 90.0859L429.744 102.88L434.186 165.846L444.794 156.12L455.044 177.077L472.722 157.661L485.094 104.578L501.889 79.3555L516.032 75L532.83 108.393L546.973 144.731L561.996 201.209L579.678 195.861L596.469 176.17L607.08 142.191L624.759 123.274L637.13 101.496L655.693 123.636L670.723 100.771L685.753 88.7937L699.893 102.223L713.152 116.378L729.95 79.3569L744.973 123.274L760 226.997V318.071L-337 318.813Z" fill="url(#paint0_linear_0_5442)"/>
<path d="M-339 235.79L-323.969 265.19L-308.051 242.324L-290.372 258.294L-277.113 264.463L-262.079 239.057L-247.048 250.309L-230.249 280.071L-215.219 265.19L-200.188 320.538L-189.995 336L-183.175 237.921L-179.432 151.959L-167.185 135.572L-156.936 175.54C-156.936 175.54 -140.95 182.799 -140.95 182.799L-125.92 175.177L-109.124 191.509C-109.124 191.509 -94.9708 214.739 -94.9708 214.013C-94.9708 213.287 -78.1754 202.036 -78.1754 202.036L-63.1483 220.545L-48.1177 219.819L-33.9678 198.043L-18.0531 208.932L0.51062 213.649L12.8922 198.769L28.8069 213.287L45.6023 198.042L58.8646 190.783H103.998L119.878 145.415L136.673 168.281L164.97 153.037L179.997 137.793L195.911 182.436L209.177 204.939H227.821L241.891 197.68L257.799 153.398L273.717 137.067L286.983 109.482L302.013 93.8751L316.156 108.393L351.519 117.103L361.248 129.445L378.931 137.43L394.842 124.725L407.224 138.156L421.12 90.0859L429.661 102.88L434.105 165.846L444.716 156.12L454.968 177.077L472.651 157.661L485.026 104.578L501.824 79.3555L515.971 75L532.773 108.393L546.92 144.731L561.947 201.209L579.633 195.861L596.429 176.17L607.042 142.191L624.725 123.274L637.1 101.496L655.667 123.636L670.701 100.771L685.735 88.7937L699.878 102.223L713.14 116.378L729.942 79.3569L744.969 123.274L760 226.997" stroke="#81DE4A" stroke-width="2"/>
</g>
</g>
<g clip-path="url(#clip1_0_5442)">
<mask id="mask1_0_5442" style="mask-type:luminance" maskUnits="userSpaceOnUse" x="0" y="0" width="660" height="276">
<rect width="660" height="276" fill="white"/>
</mask>
<g mask="url(#mask1_0_5442)">
<path d="M-373 199.79L-357.969 229.19L-342.051 206.324L-324.372 222.294L-311.113 228.463L-296.079 203.057L-281.048 214.309L-264.249 244.071L-249.219 229.19L-234.188 284.538L-223.995 300L-217.175 201.921L-213.432 115.959L-201.185 99.5725L-190.936 139.54C-190.936 139.54 -174.95 146.799 -174.95 146.799L-159.92 139.177L-143.124 155.509C-143.124 155.509 -128.971 178.739 -128.971 178.013C-128.971 177.287 -112.175 166.036 -112.175 166.036L-97.1483 184.545L-82.1177 183.819L-67.9678 162.043L-52.0531 172.932L-33.4894 177.649L-21.1078 162.769L-5.19308 177.287L11.6023 162.042L24.8646 154.783H69.9977L85.878 109.415L102.673 132.281L130.97 117.037L145.997 101.793L161.911 146.436L175.177 168.939H193.821L207.891 161.68L223.799 117.398L239.717 101.067L252.983 73.4821L268.013 57.8751L282.156 72.3933L317.519 81.1028L327.248 93.4447L344.931 101.43L360.842 88.7248L373.224 102.156L387.12 54.0859L395.661 66.8802L400.105 129.846L410.716 120.12L420.968 141.077L438.651 121.661L451.026 68.5785L467.824 43.3555L481.971 39L498.773 72.3933L512.92 108.731L527.947 165.209L545.633 159.861L562.429 140.17L573.042 106.191L590.725 87.2744L603.1 65.4957L621.667 87.636L636.701 64.7712L651.735 52.7937L665.878 66.223L679.14 80.3783L695.942 43.3569L710.969 87.2744L726 190.997" stroke="#0052FF" stroke-width="2"/>
<path fill-rule="evenodd" clip-rule="evenodd" d="M-371 279L-357.699 229.19L-341.785 206.324L-324.11 222.294L-310.855 228.463L-295.824 203.057L-280.797 214.309L-264.003 244.071L-248.976 229.19L-233.949 284.538L-223.759 300L-216.94 201.921L-213.198 115.959L-200.954 99.5725L-190.708 139.54L-174.726 146.799L-159.699 139.177L-142.908 155.509C-142.908 155.509 -128.758 178.739 -128.758 178.013C-128.758 177.287 -111.967 166.036 -111.967 166.036L-96.9432 184.545L-81.9164 183.819L-67.7701 162.043L-51.8593 172.932L-33.3002 177.649L-20.9217 162.769L-5.01096 177.287L11.7803 162.042L25.0392 154.783H70.1611L86.0374 109.415L102.829 132.281L131.118 117.037L146.141 101.793L162.052 146.436L175.314 168.939H193.954L208.02 161.68L223.924 117.398L239.838 101.067L253.1 73.4821L268.127 57.8751L282.267 72.3933L317.62 81.1028L327.347 93.4447L345.026 101.43L360.933 88.7248L373.312 102.156L387.204 54.0859L395.744 66.8802L400.186 129.846L410.794 120.12L421.044 141.077L438.722 121.661L451.094 68.5785L467.889 43.3555L482.032 39L498.83 72.3933L512.973 108.731L527.996 165.209L545.678 159.861L562.469 140.17L573.08 106.191L590.759 87.2744L603.13 65.4957L621.693 87.636L636.723 64.7712L651.753 52.7937L665.893 66.223L679.152 80.3783L695.95 43.3569L710.973 87.2744L726 190.997V278.259L-371 279Z" fill="url(#paint1_linear_0_5442)"/>
</g>
</g>
<ellipse cx="237.06" cy="103" rx="9.0596" ry="9" fill="#0052FF"/>
<ellipse cx="237.06" cy="103" rx="9.0596" ry="9" fill="white" fill-opacity="0.8"/>
<ellipse cx="237.06" cy="103" rx="5.03311" ry="5" fill="#0052FF"/>
<g filter="url(#filter0_d_0_5442)">
<path fill-rule="evenodd" clip-rule="evenodd" d="M257.179 80C256.074 80 255.179 80.8954 255.179 82V96.1005L248.948 102.291C248.554 102.682 248.554 103.318 248.948 103.709L255.179 109.899V138C255.179 139.105 256.074 140 257.179 140H376.179C377.283 140 378.179 139.105 378.179 138V82C378.179 80.8954 377.283 80 376.179 80H257.179Z" fill="white"/>
</g>
<path d="M272.291 103H273.604L276.366 95.4805C276.42 95.3301 276.468 95.1842 276.509 95.043C276.55 94.9017 276.587 94.7559 276.619 94.6055H276.687C276.719 94.7559 276.755 94.9017 276.796 95.043C276.837 95.1842 276.885 95.3301 276.94 95.4805L279.674 103H281.041L277.254 92.9785H276.078L272.291 103ZM273.918 100.402H279.394L278.997 99.3223H274.322L273.918 100.402ZM281.588 100.881V100.915C281.588 101.608 281.839 102.164 282.34 102.583C282.842 102.998 283.571 103.205 284.528 103.205C285.485 103.205 286.203 103 286.681 102.59C287.16 102.18 287.399 101.656 287.399 101.018C287.399 100.38 287.187 99.8896 286.763 99.5479C286.344 99.2061 285.747 98.944 284.972 98.7617C284.197 98.5794 283.678 98.4085 283.413 98.249C283.149 98.0895 283.017 97.873 283.017 97.5996C283.017 97.3262 283.131 97.0983 283.359 96.916C283.591 96.7337 283.958 96.6426 284.459 96.6426C284.961 96.6426 285.33 96.7406 285.567 96.9365C285.808 97.1325 285.929 97.4014 285.929 97.7432V97.8047H287.194V97.7705C287.194 97.1051 286.943 96.5788 286.442 96.1914C285.94 95.7995 285.28 95.6035 284.459 95.6035C283.639 95.6035 282.983 95.7995 282.491 96.1914C282.003 96.5833 281.759 97.0755 281.759 97.668C281.759 98.2604 281.987 98.723 282.443 99.0557C282.898 99.3838 283.514 99.639 284.288 99.8213C285.063 100.004 285.567 100.181 285.799 100.354C286.032 100.523 286.148 100.767 286.148 101.086C286.148 101.405 286.002 101.665 285.71 101.865C285.423 102.066 285.029 102.166 284.528 102.166C284.026 102.166 283.623 102.061 283.318 101.852C283.012 101.642 282.86 101.33 282.86 100.915V100.881H281.588ZM288.493 100.881V100.915C288.493 101.608 288.743 102.164 289.245 102.583C289.746 102.998 290.475 103.205 291.432 103.205C292.389 103.205 293.107 103 293.585 102.59C294.064 102.18 294.303 101.656 294.303 101.018C294.303 100.38 294.091 99.8896 293.667 99.5479C293.248 99.2061 292.651 98.944 291.876 98.7617C291.102 98.5794 290.582 98.4085 290.318 98.249C290.053 98.0895 289.921 97.873 289.921 97.5996C289.921 97.3262 290.035 97.0983 290.263 96.916C290.495 96.7337 290.862 96.6426 291.364 96.6426C291.865 96.6426 292.234 96.7406 292.471 96.9365C292.713 97.1325 292.833 97.4014 292.833 97.7432V97.8047H294.098V97.7705C294.098 97.1051 293.847 96.5788 293.346 96.1914C292.845 95.7995 292.184 95.6035 291.364 95.6035C290.543 95.6035 289.887 95.7995 289.395 96.1914C288.907 96.5833 288.663 97.0755 288.663 97.668C288.663 98.2604 288.891 98.723 289.347 99.0557C289.803 99.3838 290.418 99.639 291.193 99.8213C291.967 100.004 292.471 100.181 292.703 100.354C292.936 100.523 293.052 100.767 293.052 101.086C293.052 101.405 292.906 101.665 292.615 101.865C292.328 102.066 291.933 102.166 291.432 102.166C290.931 102.166 290.527 102.061 290.222 101.852C289.917 101.642 289.764 101.33 289.764 100.915V100.881H288.493ZM295.923 103H297.195V95.8086H295.923V103ZM295.766 93.6348C295.766 93.849 295.834 94.029 295.971 94.1748C296.108 94.3206 296.304 94.3936 296.559 94.3936C296.814 94.3936 297.01 94.3206 297.147 94.1748C297.284 94.029 297.352 93.849 297.352 93.6348C297.352 93.4206 297.284 93.2406 297.147 93.0947C297.01 92.9489 296.814 92.876 296.559 92.876C296.304 92.876 296.108 92.9489 295.971 93.0947C295.834 93.2406 295.766 93.4206 295.766 93.6348ZM299.116 104.941C299.462 105.242 299.886 105.491 300.387 105.687C300.888 105.882 301.435 105.98 302.028 105.98C302.985 105.98 303.762 105.712 304.359 105.174C304.956 104.636 305.254 103.866 305.254 102.863V95.8086H304.106L304.051 96.7451H304.01C303.828 96.4489 303.548 96.196 303.169 95.9863C302.796 95.7767 302.358 95.6719 301.857 95.6719C300.945 95.6719 300.216 96.0137 299.669 96.6973C299.122 97.3809 298.849 98.2467 298.849 99.2949V99.5137C298.849 100.562 299.122 101.428 299.669 102.111C300.216 102.795 300.945 103.137 301.857 103.137C302.358 103.137 302.784 103.048 303.135 102.87C303.491 102.688 303.773 102.449 303.983 102.152V102.863C303.983 103.501 303.805 103.996 303.45 104.347C303.094 104.698 302.609 104.873 301.994 104.873C301.538 104.873 301.128 104.782 300.763 104.6C300.398 104.422 300.116 104.217 299.915 103.984L299.116 104.941ZM300.148 99.5137V99.2949C300.148 98.5658 300.307 97.9528 300.626 97.4561C300.945 96.9593 301.447 96.7109 302.13 96.7109C302.586 96.7109 302.973 96.8363 303.292 97.0869C303.611 97.3376 303.842 97.6224 303.983 97.9414V100.867C303.842 101.186 303.611 101.471 303.292 101.722C302.973 101.972 302.586 102.098 302.13 102.098C301.447 102.098 300.945 101.849 300.626 101.353C300.307 100.856 300.148 100.243 300.148 99.5137ZM307.278 103H308.549V97.9141C308.722 97.5677 308.964 97.2852 309.274 97.0664C309.584 96.8477 309.941 96.7383 310.347 96.7383C310.821 96.7383 311.186 96.8636 311.441 97.1143C311.701 97.3604 311.83 97.7705 311.83 98.3447V103H313.102V98.3584C313.102 97.3923 312.885 96.7041 312.453 96.2939C312.024 95.8792 311.448 95.6719 310.723 95.6719C310.267 95.6719 309.85 95.7676 309.472 95.959C309.098 96.1458 308.782 96.4033 308.522 96.7314H308.481L308.426 95.8086H307.278V103ZM314.626 99.5137C314.626 100.598 314.923 101.485 315.515 102.173C316.112 102.861 316.969 103.205 318.085 103.205C318.769 103.205 319.348 103.057 319.822 102.761C320.3 102.465 320.653 102.146 320.881 101.804L320.061 101.154C319.856 101.428 319.589 101.665 319.261 101.865C318.933 102.066 318.541 102.166 318.085 102.166C317.347 102.166 316.802 101.911 316.452 101.4C316.101 100.885 315.925 100.257 315.925 99.5137V99.2949C315.925 98.5521 316.092 97.9255 316.424 97.415C316.757 96.9001 317.26 96.6426 317.935 96.6426C318.491 96.6426 318.917 96.8249 319.213 97.1895C319.509 97.554 319.658 97.9961 319.658 98.5156V98.6797H315.406V99.6914H320.936V99.1719C320.936 98.0781 320.672 97.21 320.143 96.5674C319.614 95.9248 318.86 95.6035 317.88 95.6035C316.9 95.6035 316.112 95.9476 315.515 96.6357C314.923 97.3239 314.626 98.2103 314.626 99.2949V99.5137ZM322.064 99.5137C322.064 100.562 322.337 101.428 322.884 102.111C323.431 102.795 324.16 103.137 325.072 103.137C325.573 103.137 326.01 103.032 326.384 102.822C326.762 102.613 327.043 102.36 327.225 102.063H327.266L327.321 103H328.469V92.5H327.198V96.6562C326.988 96.36 326.705 96.123 326.35 95.9453C325.999 95.763 325.573 95.6719 325.072 95.6719C324.16 95.6719 323.431 96.0137 322.884 96.6973C322.337 97.3809 322.064 98.2467 322.064 99.2949V99.5137ZM323.363 99.5137V99.2949C323.363 98.5658 323.522 97.9528 323.841 97.4561C324.16 96.9593 324.661 96.7109 325.345 96.7109C325.801 96.7109 326.188 96.8363 326.507 97.0869C326.826 97.3376 327.056 97.6224 327.198 97.9414V100.867C327.056 101.186 326.826 101.471 326.507 101.722C326.188 101.972 325.801 102.098 325.345 102.098C324.661 102.098 324.16 101.849 323.841 101.353C323.522 100.856 323.363 100.243 323.363 99.5137Z" fill="#5F646D"/>
<path d="M272.862 127H280.846V125.109H276.034L278.588 122.328C279.151 121.703 279.627 121.102 280.018 120.523C280.414 119.945 280.612 119.276 280.612 118.516C280.612 117.609 280.286 116.865 279.635 116.281C278.989 115.693 278.028 115.398 276.752 115.398C275.554 115.398 274.599 115.734 273.885 116.406C273.172 117.078 272.815 117.953 272.815 119.031V119.312H275.26V119.086C275.26 118.461 275.396 117.995 275.666 117.688C275.942 117.38 276.31 117.227 276.768 117.227C277.221 117.227 277.562 117.357 277.791 117.617C278.026 117.878 278.143 118.208 278.143 118.609C278.143 119.036 278.018 119.445 277.768 119.836C277.523 120.227 277.182 120.664 276.745 121.148L272.862 125.539V127ZM281.854 123.062C281.854 124.312 282.192 125.32 282.87 126.086C283.547 126.846 284.528 127.227 285.815 127.227C287.08 127.227 288.057 126.846 288.745 126.086C289.432 125.326 289.776 124.318 289.776 123.062V119.562C289.776 118.307 289.435 117.299 288.752 116.539C288.07 115.779 287.091 115.398 285.815 115.398C284.534 115.398 283.552 115.781 282.87 116.547C282.192 117.307 281.854 118.312 281.854 119.562V123.062ZM284.346 123.297V119.344C284.346 118.708 284.461 118.198 284.69 117.812C284.919 117.422 285.297 117.227 285.823 117.227C286.343 117.227 286.718 117.422 286.948 117.812C287.182 118.198 287.299 118.708 287.299 119.344V123.297C287.299 123.922 287.185 124.43 286.955 124.82C286.726 125.211 286.349 125.406 285.823 125.406C285.291 125.406 284.911 125.211 284.682 124.82C284.458 124.43 284.346 123.922 284.346 123.297ZM294.104 117.461H297.471V127H299.885V117.461H303.252V115.625H294.104V117.461ZM302.971 124.594C302.971 125.448 303.242 126.089 303.784 126.516C304.325 126.938 305 127.148 305.807 127.148C306.479 127.148 307.039 127.029 307.487 126.789C307.94 126.544 308.245 126.268 308.401 125.961C308.422 126.143 308.455 126.333 308.502 126.531C308.549 126.724 308.604 126.88 308.666 127H310.963V126.875C310.864 126.667 310.784 126.411 310.721 126.109C310.659 125.807 310.627 125.492 310.627 125.164V121.398C310.627 120.435 310.317 119.724 309.698 119.266C309.078 118.807 308.216 118.578 307.112 118.578C306.018 118.578 305.127 118.818 304.44 119.297C303.752 119.776 303.409 120.385 303.409 121.125V121.242H305.705V121.125C305.705 120.849 305.804 120.617 306.002 120.43C306.2 120.242 306.539 120.148 307.018 120.148C307.492 120.148 307.823 120.263 308.01 120.492C308.198 120.716 308.291 121.013 308.291 121.383V121.844H306.69C305.617 121.849 304.729 122.081 304.026 122.539C303.323 122.992 302.971 123.677 302.971 124.594ZM305.315 124.383C305.315 124.018 305.455 123.737 305.737 123.539C306.018 123.341 306.45 123.242 307.034 123.242H308.291V124.023C308.291 124.445 308.133 124.81 307.815 125.117C307.497 125.424 307.096 125.578 306.612 125.578C306.164 125.578 305.836 125.469 305.627 125.25C305.419 125.031 305.315 124.742 305.315 124.383ZM312.166 124.414V124.5C312.166 125.375 312.492 126.049 313.143 126.523C313.794 126.997 314.713 127.234 315.901 127.234C317.099 127.234 318.008 126.997 318.627 126.523C319.252 126.049 319.565 125.393 319.565 124.555C319.565 123.852 319.338 123.299 318.885 122.898C318.437 122.497 317.734 122.201 316.776 122.008C315.875 121.826 315.302 121.664 315.057 121.523C314.812 121.383 314.69 121.193 314.69 120.953C314.69 120.714 314.784 120.523 314.971 120.383C315.164 120.237 315.471 120.164 315.893 120.164C316.32 120.164 316.635 120.253 316.838 120.43C317.047 120.607 317.151 120.854 317.151 121.172V121.297H319.424V121.203C319.424 120.391 319.104 119.75 318.463 119.281C317.823 118.807 316.968 118.57 315.901 118.57C314.833 118.57 313.984 118.797 313.354 119.25C312.724 119.703 312.409 120.323 312.409 121.109C312.409 121.766 312.63 122.299 313.073 122.711C313.515 123.122 314.218 123.427 315.182 123.625C316.078 123.807 316.646 123.966 316.885 124.102C317.125 124.237 317.245 124.445 317.245 124.727C317.245 125.008 317.13 125.232 316.901 125.398C316.672 125.565 316.333 125.648 315.885 125.648C315.442 125.648 315.091 125.562 314.83 125.391C314.575 125.214 314.448 124.932 314.448 124.547V124.422L312.166 124.414ZM321.12 127H323.455V124.438L328.721 118.805H326.143L323.455 121.719V115.062H321.12V127ZM326.307 127H329.065L324.987 121.523L323.495 123.18L326.307 127ZM329.338 124.414V124.5C329.338 125.375 329.664 126.049 330.315 126.523C330.966 126.997 331.885 127.234 333.073 127.234C334.271 127.234 335.179 126.997 335.799 126.523C336.424 126.049 336.737 125.393 336.737 124.555C336.737 123.852 336.51 123.299 336.057 122.898C335.609 122.497 334.906 122.201 333.948 122.008C333.047 121.826 332.474 121.664 332.229 121.523C331.984 121.383 331.862 121.193 331.862 120.953C331.862 120.714 331.955 120.523 332.143 120.383C332.336 120.237 332.643 120.164 333.065 120.164C333.492 120.164 333.807 120.253 334.01 120.43C334.218 120.607 334.323 120.854 334.323 121.172V121.297H336.596V121.203C336.596 120.391 336.276 119.75 335.635 119.281C334.995 118.807 334.14 118.57 333.073 118.57C332.005 118.57 331.156 118.797 330.526 119.25C329.896 119.703 329.58 120.323 329.58 121.109C329.58 121.766 329.802 122.299 330.245 122.711C330.687 123.122 331.39 123.427 332.354 123.625C333.25 123.807 333.817 123.966 334.057 124.102C334.297 124.237 334.416 124.445 334.416 124.727C334.416 125.008 334.302 125.232 334.073 125.398C333.843 125.565 333.505 125.648 333.057 125.648C332.614 125.648 332.263 125.562 332.002 125.391C331.747 125.214 331.62 124.932 331.62 124.547V124.422L329.338 124.414Z" fill="black"/>
<defs>
<filter id="filter0_d_0_5442" x="224.653" y="76" width="177.526" height="108" filterUnits="userSpaceOnUse" color-interpolation-filters="sRGB">
<feFlood flood-opacity="0" result="BackgroundImageFix"/>
<feColorMatrix in="SourceAlpha" type="matrix" values="0 0 0 0 0 0 0 0 0 0 0 0 0 0 0 0 0 0 127 0" result="hardAlpha"/>
<feOffset dy="20"/>
<feGaussianBlur stdDeviation="12"/>
<feColorMatrix type="matrix" values="0 0 0 0 0.6 0 0 0 0 0.607843 0 0 0 0 0.658824 0 0 0 0.18 0"/>
<feBlend mode="normal" in2="BackgroundImageFix" result="effect1_dropShadow_0_5442"/>
<feBlend mode="normal" in="SourceGraphic" in2="effect1_dropShadow_0_5442" result="shape"/>
</filter>
<linearGradient id="paint0_linear_0_5442" x1="-382.615" y1="2.64895" x2="-382.615" y2="285.355" gradientUnits="userSpaceOnUse">
<stop stop-color="#BFE583"/>
<stop offset="1" stop-color="white" stop-opacity="0.01"/>
</linearGradient>
<linearGradient id="paint1_linear_0_5442" x1="-1158.22" y1="-335.595" x2="-1158.22" y2="300" gradientUnits="userSpaceOnUse">
<stop stop-color="#0052FF"/>
<stop offset="1" stop-color="white" stop-opacity="0.01"/>
</linearGradient>
<clipPath id="clip0_0_5442">
<rect width="660" height="276" fill="white"/>
</clipPath>
<clipPath id="clip1_0_5442">
<rect width="660" height="276" fill="white"/>
</clipPath>
</defs>
</svg>
