<svg width="28" height="28" viewBox="0 0 28 28" fill="none" xmlns="http://www.w3.org/2000/svg">
<path fill-rule="evenodd" clip-rule="evenodd" d="M14 28C6.27813 28 0 21.7255 0 14.0055C0 6.27454 6.27813 0 14 0C21.7219 0 28 6.27454 28 13.9945C28 21.7145 21.7219 28 14 28ZM25.8016 15.9108C25.3969 15.7794 22.1047 14.8048 18.3531 15.3962C19.9172 19.6887 20.5516 23.1928 20.6719 23.9155C23.3625 22.1087 25.2766 19.2397 25.8016 15.9108ZM16.1219 15.9546C17.7953 20.3129 18.4953 23.9703 18.6703 25.0215C17.2375 25.6347 15.6516 25.9742 14 25.9632C11.2328 25.9632 8.68437 25.0215 6.66094 23.4447C6.87969 23.0066 9.29688 18.3309 16.0453 15.9765C16.0672 15.9765 16.1 15.9656 16.1219 15.9546ZM5.11875 22.0102C5.39219 21.5503 8.67344 16.1189 14.8422 14.115C14.9677 14.0701 15.1006 14.0326 15.2287 13.9964L15.3125 13.9726C15.0172 13.2937 14.6891 12.6148 14.3391 11.9468C8.36719 13.7317 2.57031 13.6551 2.04531 13.6441C2.04531 13.7043 2.04258 13.7646 2.03984 13.8248C2.03711 13.885 2.03437 13.9452 2.03437 14.0055C2.04531 17.0825 3.20469 19.8858 5.11875 22.0102ZM13.3547 10.1072C7.75469 11.5964 2.83281 11.5745 2.29688 11.5636C3.07344 7.86234 5.56719 4.77434 8.925 3.1975L8.96151 3.24833L8.96152 3.24835C9.37346 3.82157 11.4407 6.69825 13.3547 10.1072ZM11.2 2.38717C11.5281 2.82519 13.7047 5.78178 15.6625 9.38444C19.9172 7.78569 21.7109 5.37661 21.9297 5.07C19.8188 3.1975 17.0406 2.05866 14 2.05866C13.0375 2.05866 12.0969 2.17912 11.2 2.38717ZM16.5813 11.1693C21 9.36253 23.0016 6.78921 23.2531 6.44975C24.9266 8.48651 25.9328 11.0817 25.9656 13.896C25.9557 13.894 25.9436 13.8917 25.9293 13.8889C25.3738 13.7795 21.5236 13.0216 17.6422 13.5127C17.5547 13.3156 17.4672 13.1075 17.3797 12.8995C17.1281 12.3191 16.8547 11.7388 16.5813 11.1693Z" fill="#B2215A"/>
</svg>
