<svg width="28" height="28" viewBox="0 0 28 28" fill="none" xmlns="http://www.w3.org/2000/svg">
<mask id="mask0_0_874" style="mask-type:luminance" maskUnits="userSpaceOnUse" x="1" y="1" width="26" height="26">
<path fill-rule="evenodd" clip-rule="evenodd" d="M25.9651 11.7727H14.2849V16.5057H21.0081C20.3814 19.5125 17.7605 21.2386 14.2849 21.2386C10.1826 21.2386 6.87791 18.0091 6.87791 14C6.87791 9.99091 10.1826 6.76136 14.2849 6.76136C16.0512 6.76136 17.6465 7.37386 18.9 8.37614L22.5465 4.8125C20.3244 2.91932 17.4756 1.75 14.2849 1.75C7.33372 1.75 1.75 7.20682 1.75 14C1.75 20.7932 7.33372 26.25 14.2849 26.25C20.5523 26.25 26.25 21.7955 26.25 14C26.25 13.2761 26.136 12.4966 25.9651 11.7727Z" fill="white"/>
</mask>
<g mask="url(#mask0_0_874)">
<path d="M0.610352 21.2386V6.76135L10.2964 14L0.610352 21.2386Z" fill="#FBBC05"/>
</g>
<mask id="mask1_0_874" style="mask-type:luminance" maskUnits="userSpaceOnUse" x="1" y="1" width="26" height="26">
<path fill-rule="evenodd" clip-rule="evenodd" d="M25.9651 11.7727H14.2849V16.5057H21.0081C20.3814 19.5125 17.7605 21.2386 14.2849 21.2386C10.1826 21.2386 6.87791 18.0091 6.87791 14C6.87791 9.99091 10.1826 6.76136 14.2849 6.76136C16.0512 6.76136 17.6465 7.37386 18.9 8.37614L22.5465 4.8125C20.3244 2.91932 17.4756 1.75 14.2849 1.75C7.33372 1.75 1.75 7.20682 1.75 14C1.75 20.7932 7.33372 26.25 14.2849 26.25C20.5523 26.25 26.25 21.7955 26.25 14C26.25 13.2761 26.136 12.4966 25.9651 11.7727Z" fill="white"/>
</mask>
<g mask="url(#mask1_0_874)">
<path d="M0.610352 6.76135L10.2964 14L14.2848 10.6034L27.9592 8.43181V0.636353H0.610352V6.76135Z" fill="#EA4335"/>
</g>
<mask id="mask2_0_874" style="mask-type:luminance" maskUnits="userSpaceOnUse" x="1" y="1" width="26" height="26">
<path fill-rule="evenodd" clip-rule="evenodd" d="M25.9651 11.7727H14.2849V16.5057H21.0081C20.3814 19.5125 17.7605 21.2386 14.2849 21.2386C10.1826 21.2386 6.87791 18.0091 6.87791 14C6.87791 9.99091 10.1826 6.76136 14.2849 6.76136C16.0512 6.76136 17.6465 7.37386 18.9 8.37614L22.5465 4.8125C20.3244 2.91932 17.4756 1.75 14.2849 1.75C7.33372 1.75 1.75 7.20682 1.75 14C1.75 20.7932 7.33372 26.25 14.2849 26.25C20.5523 26.25 26.25 21.7955 26.25 14C26.25 13.2761 26.136 12.4966 25.9651 11.7727Z" fill="white"/>
</mask>
<g mask="url(#mask2_0_874)">
<path d="M0.610352 21.2386L17.7034 8.43181L22.2045 8.98863L27.9592 0.636353V27.3636H0.610352V21.2386Z" fill="#34A853"/>
</g>
<mask id="mask3_0_874" style="mask-type:luminance" maskUnits="userSpaceOnUse" x="1" y="1" width="26" height="26">
<path fill-rule="evenodd" clip-rule="evenodd" d="M25.9651 11.7727H14.2849V16.5057H21.0081C20.3814 19.5125 17.7605 21.2386 14.2849 21.2386C10.1826 21.2386 6.87791 18.0091 6.87791 14C6.87791 9.99091 10.1826 6.76136 14.2849 6.76136C16.0512 6.76136 17.6465 7.37386 18.9 8.37614L22.5465 4.8125C20.3244 2.91932 17.4756 1.75 14.2849 1.75C7.33372 1.75 1.75 7.20682 1.75 14C1.75 20.7932 7.33372 26.25 14.2849 26.25C20.5523 26.25 26.25 21.7955 26.25 14C26.25 13.2761 26.136 12.4966 25.9651 11.7727Z" fill="white"/>
</mask>
<g mask="url(#mask3_0_874)">
<path d="M27.9594 27.3636L10.2966 14L8.01758 12.3295L27.9594 6.76135V27.3636Z" fill="#4285F4"/>
</g>
</svg>
