<svg width="161" height="70" viewBox="0 0 161 70" fill="none" xmlns="http://www.w3.org/2000/svg">
<mask id="mask0_1_7487" style="mask-type:luminance" maskUnits="userSpaceOnUse" x="4" y="0" width="153" height="68">
<rect x="4" width="153" height="68" fill="white"/>
</mask>
<g mask="url(#mask0_1_7487)">
<path d="M-265 48.8028L-258.572 54.4348L-251.764 50.0543L-244.204 53.1137L-238.533 54.2955L-232.104 49.4286L-225.676 51.584L-218.492 57.2856L-212.064 54.4348L-205.636 65.038L-201.276 68L-198.36 49.2109L-196.759 32.7431L-191.521 29.6039L-187.138 37.2605C-187.138 37.2605 -180.302 38.6512 -180.302 38.6512L-173.874 37.191L-166.691 40.3196C-166.691 40.3196 -160.638 44.7699 -160.638 44.6309C-160.638 44.4918 -153.455 42.3363 -153.455 42.3363L-147.029 45.8822L-140.601 45.7431L-134.549 41.5715L-127.743 43.6574L-119.804 44.5611L-114.509 41.7106L-107.703 44.4918L-100.52 41.5712L-94.8486 40.1806H-75.5469L-68.7556 31.4894L-61.5728 35.8699L-49.4716 32.9496L-43.0451 30.0292L-36.2389 38.5816L-30.5657 42.8926H-22.5924L-16.5753 41.502L-9.77219 33.0188L-2.9646 29.8902L2.70865 24.6058L9.13663 21.6159L15.185 24.3972L30.3083 26.0657L34.469 28.43L42.0314 29.9597L48.836 27.5258L54.1311 30.0988L60.0741 20.89L63.7269 23.341L65.627 35.4035L70.1649 33.5401L74.5495 37.5549L82.1118 33.8354L87.404 23.6664L94.5882 18.8344L100.638 18L107.824 24.3972L113.874 31.3585L120.3 42.178L127.864 41.1534L135.047 37.3813L139.586 30.8718L147.148 27.248L152.44 23.0758L160.381 27.3172L166.81 22.937L173.24 20.6425L179.288 23.2151L184.96 25.9269L192.145 18.8347L198.572 27.248L205 47.1181" stroke="#0052FF" stroke-width="2"/>
<path fill-rule="evenodd" clip-rule="evenodd" d="M-263.75 56.8494L-258.067 54.4348L-251.266 50.0543L-243.714 53.1137L-238.05 54.2955L-231.627 49.4286L-225.206 51.584L-218.03 57.2856L-211.609 54.4348L-205.188 65.038L-200.834 68L-197.92 49.2109L-196.321 32.7431L-191.089 29.6039L-186.711 37.2605L-179.882 38.6512L-173.461 37.191L-166.286 40.3196C-166.286 40.3196 -160.24 44.7699 -160.24 44.6309C-160.24 44.4918 -153.065 42.3363 -153.065 42.3363L-146.645 45.8822L-140.224 45.7431L-134.179 41.5715L-127.381 43.6574L-119.45 44.5611L-114.161 41.7106L-107.362 44.4918L-100.187 41.5712L-94.5217 40.1806H-75.2411L-68.4571 31.4894L-61.2822 35.8699L-49.1942 32.9496L-42.7746 30.0292L-35.976 38.5816L-30.3089 42.8926H-22.3443L-16.3338 41.502L-9.53806 33.0188L-2.73788 29.8902L2.92917 24.6058L9.35016 21.6159L15.392 24.3972L30.4987 26.0657L34.6549 28.43L42.209 29.9597L49.0063 27.5258L54.2956 30.0988L60.2321 20.89L63.8809 23.341L65.779 35.4035L70.312 33.5401L74.6917 37.5549L82.2458 33.8354L87.5322 23.6664L94.7086 18.8344L100.752 18L107.93 24.3972L113.973 31.3585L120.393 42.178L127.948 41.1534L135.123 37.3813L139.657 30.8718L147.211 27.248L152.497 23.0758L160.429 27.3172L166.852 22.937L173.274 20.6425L179.316 23.2151L184.982 25.9269L192.159 18.8347L198.579 27.248L205 47.1181V56.7074L-263.75 56.8494Z" fill="url(#paint0_linear_1_7487)"/>
</g>
<defs>
<linearGradient id="paint0_linear_1_7487" x1="-384.77" y1="-23.0024" x2="-384.77" y2="52.8152" gradientUnits="userSpaceOnUse">
<stop stop-color="#0052FF"/>
<stop offset="1" stop-color="white" stop-opacity="0.01"/>
</linearGradient>
</defs>
</svg>
