<svg width="28" height="28" viewBox="0 0 28 28" fill="none" xmlns="http://www.w3.org/2000/svg">
<path d="M14.6562 0C16.3698 0.0364585 17.983 0.428384 19.4961 1.17578C21.0091 1.92317 22.2031 2.95312 23.0781 4.26561C24.026 5.68749 24.5 7.28253 24.5 9.05076C24.5 10.819 24.2083 12.4869 23.625 14.0547C22.9687 15.7682 22.039 17.1171 20.8359 18.1015C19.4869 19.1953 17.901 19.7421 16.0781 19.7421C15.3489 19.7421 14.6198 19.569 13.8906 19.2226C13.1614 18.8763 12.6328 18.3932 12.3047 17.7734L11.8672 19.5234C11.3932 21.4192 11.0104 22.7317 10.7187 23.4609C10.2812 24.4453 9.49738 25.7031 8.36718 27.2343L8.14843 27.3437L7.98436 27.1796L7.92968 26.3593C7.8203 25.3385 7.76561 24.5729 7.76561 24.0624C7.76561 22.9687 7.94791 21.5468 8.31249 19.7968C8.53124 18.776 8.89582 17.263 9.40624 15.2578L10.0625 12.6328C9.6979 11.9401 9.51561 11.0286 9.51561 9.89841C9.51561 8.84113 9.78905 7.96613 10.3359 7.27342C10.8099 6.69009 11.3932 6.32551 12.0859 6.17967C12.7786 6.03384 13.3802 6.16144 13.8906 6.56248C14.401 6.96352 14.6562 7.60154 14.6562 8.47654C14.6562 8.9505 14.5833 9.47914 14.4375 10.0625C14.3646 10.3906 14.2005 10.901 13.9453 11.5937C13.6901 12.2864 13.526 12.7968 13.4531 13.125C13.3073 13.7083 13.2344 14.2187 13.2344 14.6562C13.2344 15.3489 13.4804 15.9231 13.9726 16.3789C14.4648 16.8346 15.0573 17.0625 15.75 17.0625C16.9166 17.0625 17.901 16.552 18.7031 15.5312C19.3958 14.6927 19.9062 13.5625 20.2343 12.1406C20.526 10.9739 20.6718 9.8255 20.6718 8.69529C20.6718 6.79946 20.0794 5.3229 18.8945 4.26561C17.7096 3.20833 16.151 2.67968 14.2187 2.67968C12.7969 2.67968 11.4935 3.00781 10.3086 3.66405C9.12368 4.3203 8.20311 5.21353 7.54687 6.34373C6.89062 7.47394 6.56249 8.76821 6.56249 10.2265C6.56249 10.8463 6.67187 11.4479 6.89062 12.0312C6.99999 12.3593 7.20051 12.7604 7.49218 13.2343C7.71093 13.5989 7.8203 13.8359 7.8203 13.9453C7.8203 14.2369 7.74739 14.6015 7.60155 15.039C7.41926 15.5859 7.21874 15.8593 6.99999 15.8593C6.52603 15.8593 6.01562 15.6132 5.46875 15.1211C4.92187 14.6289 4.46614 13.9635 4.10156 13.125C3.70052 12.1406 3.5 11.0468 3.5 9.84373C3.5 7.87498 4.04687 6.12499 5.14062 4.59374C6.16145 3.17187 7.52864 2.05078 9.24217 1.23047C10.9557 0.410155 12.7604 0 14.6562 0Z" fill="#EA0010"/>
</svg>
