<svg width="28" height="28" viewBox="0 0 28 28" fill="none" xmlns="http://www.w3.org/2000/svg">
<path d="M10.658 1.75C9.427 1.75091 8.43073 2.74828 8.43164 3.97727C8.43073 5.20627 9.42791 6.20364 10.6589 6.20455H12.8862V3.97818C12.8871 2.74918 11.8899 1.75182 10.658 1.75C10.6589 1.75 10.6589 1.75 10.658 1.75" fill="#36C5F0"/>
<path d="M10.4996 8.43182H4.13678C2.81762 8.43273 1.74903 9.4299 1.75 10.6586C1.74805 11.8874 2.81664 12.8846 4.13581 12.8864H10.4996C11.8187 12.8855 12.8873 11.8883 12.8864 10.6596C12.8873 9.4299 11.8187 8.43273 10.4996 8.43182Z" fill="#36C5F0"/>
<path d="M26.25 10.6586C26.2509 9.4299 25.2537 8.43273 24.0227 8.43182C22.7917 8.43273 21.7945 9.4299 21.7954 10.6586V12.8864H24.0227C25.2537 12.8855 26.2509 11.8883 26.25 10.6586Z" fill="#2EB67D"/>
<path d="M19.5683 10.4995V4.13588C19.5692 2.82034 18.5728 1.75195 17.3415 1.75C16.1102 1.75097 15.1129 2.81936 15.1138 4.13588V10.4995C15.112 11.816 16.1093 12.8844 17.3406 12.8864C18.5718 12.8854 19.5692 11.817 19.5683 10.4995Z" fill="#2EB67D"/>
<path d="M17.341 26.25C18.572 26.2491 19.5692 25.2517 19.5683 24.0227C19.5692 22.7937 18.572 21.7963 17.341 21.7954H15.1138V24.0227C15.1129 25.2508 16.11 26.2482 17.341 26.25Z" fill="#ECB22E"/>
<path d="M17.4996 19.5682H23.8633C25.1825 19.5673 26.2511 18.5701 26.2501 17.3414C26.2521 16.1126 25.1835 15.1155 23.8643 15.1136H17.5006C16.1814 15.1146 15.1128 16.1117 15.1138 17.3405C15.1128 18.5701 16.1804 19.5673 17.4996 19.5682V19.5682Z" fill="#ECB22E"/>
<path d="M1.75 17.3409C1.74909 18.5699 2.74627 19.5673 3.97727 19.5682C5.20828 19.5673 6.20545 18.5699 6.20454 17.3409V15.1136H3.97727C2.74627 15.1146 1.74909 16.1119 1.75 17.3409Z" fill="#E01E5A"/>
<path d="M8.43164 17.4988V23.863C8.42982 25.1796 9.4272 26.2481 10.6585 26.25C11.8897 26.249 12.8871 25.1806 12.8862 23.8639V17.5007C12.888 16.1841 11.8906 15.1156 10.6594 15.1136C9.4272 15.1136 8.43073 16.1821 8.43164 17.4988C8.43164 17.4988 8.43164 17.4997 8.43164 17.4988" fill="#E01E5A"/>
</svg>
