<svg width="28" height="28" viewBox="0 0 28 28" fill="none" xmlns="http://www.w3.org/2000/svg">
<path d="M25.1015 9.18749C25.138 9.33332 25.1562 9.5703 25.1562 9.89842C25.1562 12.5234 24.5182 15.0573 23.2421 17.5C21.9296 20.0885 20.0885 22.1484 17.7187 23.6796C15.1302 25.3932 12.1588 26.2499 8.80467 26.2499C5.59634 26.2499 2.66145 25.3932 0 23.6796C0.40104 23.7161 0.856769 23.7343 1.36718 23.7343C4.02864 23.7343 6.41665 22.914 8.53123 21.2734C7.25519 21.2734 6.1341 20.8997 5.16796 20.1523C4.20181 19.4049 3.53645 18.4661 3.17187 17.3359C3.53645 17.3724 3.8828 17.3906 4.21093 17.3906C4.72134 17.3906 5.23176 17.3359 5.74217 17.2265C4.42968 16.9349 3.33593 16.2604 2.46093 15.2031C1.58593 14.1458 1.14843 12.9427 1.14843 11.5937V11.4844C1.95052 11.9583 2.80728 12.2135 3.71874 12.25C2.95312 11.7031 2.33333 11.0104 1.85937 10.1719C1.38541 9.33332 1.14843 8.41275 1.14843 7.41015C1.14843 6.40755 1.42187 5.45052 1.96875 4.53906C3.39062 6.32551 5.1315 7.74739 7.19139 8.80468C9.25128 9.86196 11.4479 10.4453 13.7812 10.5547C13.7083 10.1172 13.6718 9.67967 13.6718 9.24217C13.6718 8.22134 13.927 7.26431 14.4375 6.37109C14.9479 5.47786 15.6406 4.77604 16.5156 4.26562C17.3906 3.75521 18.3385 3.5 19.3593 3.5C20.1979 3.5 20.9726 3.66406 21.6835 3.99219C22.3945 4.32031 23.0234 4.75781 23.5703 5.30468C24.8828 5.04948 26.1041 4.59375 27.2343 3.9375C26.7968 5.28645 25.9583 6.34374 24.7187 7.10937C25.8124 6.96353 26.9062 6.65364 27.9999 6.17968C27.1979 7.34634 26.2317 8.34895 25.1015 9.18749Z" fill="#00A2F3"/>
</svg>
