<svg width="288" height="305" viewBox="0 0 288 305" fill="none" xmlns="http://www.w3.org/2000/svg">
<circle cx="111" cy="35" r="14" fill="#FD6584"/>
<path d="M140.692 27.8512C139.902 25.3001 137.65 23.4547 134.959 23.1545C134.929 23.152 134.898 23.152 134.867 23.1545C134.83 23.1432 134.792 23.1347 134.754 23.1292C130.166 22.5428 125.065 23.9685 121.631 27.0726C120.357 28.2068 119.337 29.5914 118.639 31.1373C117.347 29.3987 115.267 28.4 113.081 28.468C110.236 28.6533 107.813 30.5762 107.025 33.2759C106.938 33.6065 107.082 33.954 107.379 34.1303C107.792 34.478 108.283 34.7241 108.811 34.8482C109.945 35.0858 111.09 35.3032 112.234 35.5003C114.472 35.8846 116.721 36.1963 118.983 36.4356C120.476 36.5924 121.973 36.7171 123.474 36.8098C126.573 37.0019 129.689 37.0474 132.794 36.9513C134.333 36.9008 135.811 36.8502 137.218 36.1829C138.242 35.6864 139.118 34.9354 139.758 34.0039C140.978 32.1901 141.32 29.9372 140.692 27.8512Z" fill="#E6E6E6"/>
<path d="M112.985 47.5173C112.959 46.9515 112.862 46.391 112.697 45.8483C111.904 43.2966 109.65 41.4514 106.959 41.1498C106.93 41.1473 106.901 41.1473 106.872 41.1498C106.833 41.139 106.794 41.1306 106.754 41.1246C104.214 40.818 101.637 41.079 99.2142 41.8883C95.488 43.1172 92.2185 45.5954 90.6429 49.1358C89.3492 47.3953 87.2674 46.3961 85.0792 46.4653C82.2335 46.6507 79.8113 48.5744 79.0228 51.2751C78.941 51.6055 79.0838 51.9503 79.377 52.1298C79.7904 52.4768 80.281 52.7228 80.809 52.848C81.9484 53.0857 83.0878 53.3032 84.2375 53.5005C86.4753 53.8848 88.7233 54.1967 90.9816 54.4361C95.5696 54.9214 100.186 55.0938 104.798 54.952C106.333 54.9014 107.816 54.8508 109.223 54.1832C110.246 53.6864 111.12 52.9351 111.758 52.0034C112.658 50.6823 113.089 49.1051 112.985 47.5173Z" fill="#E6E6E6"/>
<path fill-rule="evenodd" clip-rule="evenodd" d="M200.9 220.578V26.3326C200.063 25.7141 199.221 25.1006 198.369 24.5025L197.864 24.1497C188.043 17.2661 177.419 11.611 166.229 7.31036L163.821 40.5904L148.327 40.5924V1.73301C147.317 1.48252 146.306 1.24736 145.286 1.02754V40.5924H86.7799V0C85.7646 0.189149 84.7494 0.38341 83.7393 0.593008V40.5924H67.7354L65.2099 5.68981C54.3196 9.47246 43.9118 14.5274 34.2018 20.7502C33.8651 20.9649 33.5284 21.1796 33.1917 21.4045C32.5131 21.8442 31.8346 22.294 31.1663 22.749V220.578H13.6828C9.1407 220.576 4.89367 222.833 2.34853 226.603C-0.196621 230.372 -0.707665 235.162 0.984677 239.386C1.23474 240.015 1.53324 240.623 1.87747 241.206C2.32208 241.966 2.83799 242.681 3.41819 243.343C6.01102 246.304 9.75171 248.001 13.6828 248H213.317C220.874 248 227 241.861 227 234.289C227 226.717 220.874 220.578 213.317 220.578L200.9 220.578ZM160.484 86.795L150.827 220.578H80.7292L71.0718 86.795H160.484ZM161.219 76.6406L163.601 43.6387H148.327V76.6406H161.219ZM145.286 43.6387V76.6406H122.006C121.055 74.7716 119.139 73.5948 117.046 73.5942H114.006C111.912 73.5948 109.996 74.7716 109.045 76.6406H86.7799V43.6387H145.286ZM70.3371 76.6406H83.7393L83.7393 43.6387H67.9548L70.3371 76.6406Z" fill="white"/>
<path d="M1 242C5.44509 247.155 10.2529 252 15.3884 256.499L209.612 257C214.747 252.501 219.555 247.656 224 242.501L1 242Z" fill="#3F3D56"/>
<path fill-rule="evenodd" clip-rule="evenodd" d="M99 245V192.762C99.0004 192.294 99.189 191.846 99.5242 191.515C99.8593 191.184 100.314 190.999 100.787 191H134.218C134.398 190.998 134.578 191.026 134.749 191.082C135.494 191.309 136.001 191.991 136 192.762V245H99ZM117.389 206.841C115.222 206.841 113.46 208.568 113.44 210.711V216.773C113.451 218.922 115.216 220.659 117.389 220.659C119.563 220.659 121.328 218.922 121.339 216.773V210.711C121.319 208.568 119.556 206.841 117.389 206.841Z" fill="#2F2E41"/>
<path d="M99 244V249.016C99.0017 249.557 99.4422 249.995 99.9878 250H135.012C135.559 249.997 136 249.558 136 249.016V244H99Z" fill="#3F3D56"/>
<path d="M41 114.599V210.396C41.002 212.938 43.0599 214.998 45.599 215H187.401C189.94 214.998 191.998 212.938 192 210.396V114.599C191.994 112.06 189.938 110.003 187.401 110H45.599C43.0624 110.003 41.0061 112.06 41 114.599H41Z" fill="#3F3D56"/>
<path d="M44 115.457V208.548C44.0024 209.901 45.1064 210.998 46.4689 211H186.531C187.894 210.998 188.998 209.901 189 208.548V115.457C189 114.102 187.895 113.003 186.531 113H46.4689C45.1046 113.003 44.0001 114.102 44 115.457Z" fill="#0052FF"/>
<path d="M72.3432 251.381C72.6307 251.775 73.0675 252.003 73.5286 252H156.476C156.935 251.999 157.37 251.773 157.659 251.384C157.948 250.995 158.062 250.484 157.968 249.993L156.68 243.321C156.572 242.768 156.214 242.313 155.73 242.111C155.557 242.038 155.373 242 155.188 242H74.8111C74.6257 242 74.442 242.038 74.2695 242.111C73.7852 242.313 73.4275 242.768 73.3191 243.321L72.0315 249.993C71.9387 250.484 72.0532 250.993 72.3432 251.381Z" fill="#2F2E41"/>
<path d="M74.5442 245C74.5188 245 74.4936 245.004 74.4698 245.012C74.3868 245.037 74.3235 245.099 74.3013 245.175L73.0044 250.729C72.9905 250.794 73.0097 250.861 73.0567 250.912L73.0624 250.918C73.1078 250.972 73.1788 251.002 73.2533 251H156.75C156.824 251.001 156.894 250.971 156.941 250.919C156.99 250.869 157.01 250.8 156.995 250.735L155.698 245.178C155.678 245.104 155.62 245.044 155.542 245.016C155.514 245.006 155.484 245 155.454 245H74.5442Z" fill="white"/>
<path d="M51.5094 125H182.491C182.774 124.994 183 124.772 183 124.5C183 124.228 182.774 124.006 182.491 124H51.5094C51.2263 124.006 51 124.228 51 124.5C51 124.772 51.2263 124.994 51.5094 125Z" fill="#3F3D56"/>
<circle cx="173" cy="119" r="3" fill="#3F3D56"/>
<circle cx="163" cy="119" r="3" fill="#3F3D56"/>
<circle cx="152" cy="119" r="3" fill="#3F3D56"/>
<path d="M57 117.502C56.9993 117.634 57.0605 117.76 57.1702 117.853C57.2799 117.947 57.4291 117.999 57.585 118H65.4206C65.7428 117.994 66 117.772 66 117.5C66 117.228 65.7428 117.006 65.4206 117H57.585C57.2594 117.003 56.998 117.228 57 117.502Z" fill="#3F3D56"/>
<path d="M57 119.502C56.9993 119.634 57.0605 119.76 57.1702 119.853C57.2799 119.947 57.4291 119.999 57.585 120H65.42C65.7424 119.994 66 119.772 66 119.5C66 119.228 65.7424 119.006 65.42 119H57.585C57.2594 119.003 56.998 119.228 57 119.502Z" fill="#3F3D56"/>
<path d="M57 121.498C56.998 121.772 57.2594 121.997 57.585 122H65.4206C65.7428 121.994 66 121.772 66 121.5C66 121.228 65.7428 121.006 65.4206 121H57.585C57.4291 121.001 57.2799 121.053 57.1702 121.147C57.0605 121.24 56.9993 121.366 57 121.498H57Z" fill="#3F3D56"/>
<path fill-rule="evenodd" clip-rule="evenodd" d="M71.5534 141H163.447C165.96 141.003 167.997 143.008 168 145.483V189.517C167.997 191.992 165.96 193.997 163.447 194H71.5534C69.0397 193.997 67.0028 191.992 67 189.517V145.483C67.0029 143.008 69.0398 141.003 71.5534 141ZM166.975 158.33V145.483C166.972 143.566 165.394 142.012 163.447 142.01H134.675V158.33H166.975ZM101.35 175.66V159.34H133.65V175.66H101.35ZM133.65 192.99V176.67H101.35V192.99H133.65ZM100.325 175.66H68.0254V159.34H100.325V175.66ZM101.35 142.01V158.33H133.65V142.01H101.35ZM134.675 159.34H166.975V175.66H134.675V159.34ZM100.325 142.01H71.5534V142.01C69.6058 142.012 68.0276 143.566 68.0254 145.483V158.33H100.325V142.01ZM68.0254 189.517V176.67H100.325V192.99H71.5534C69.6058 192.988 68.0275 191.434 68.0254 189.517ZM134.675 192.99H163.447C165.394 192.988 166.973 191.434 166.975 189.517V176.67H134.675V192.99Z" fill="#3F3D56"/>
<path d="M111.553 153.468C110.737 152.078 109.771 150.594 108.257 150.141C106.504 149.615 104.704 150.659 103.176 151.689C98.6086 154.77 94.2098 158.108 90 161.689L90.0046 161.743L99.837 161.045C102.205 160.876 104.654 160.685 106.747 159.531C107.541 159.093 108.315 158.508 109.215 158.468C110.333 158.417 111.308 159.221 112.074 160.062C116.605 165.032 117.916 172.633 123 177C119.794 168.856 115.967 160.988 111.553 153.468Z" fill="white"/>
<path d="M139.758 194.949C139.253 194.309 139.046 194.159 138.548 193.514C134.492 188.253 130.68 182.814 127.111 177.198C124.687 173.384 122.383 169.496 120.2 165.535C119.16 163.652 118.149 161.754 117.167 159.842C116.404 158.359 115.659 156.867 114.93 155.366C114.722 154.938 114.52 154.507 114.318 154.075C113.844 153.06 113.378 152.041 112.878 151.039C112.361 149.838 111.57 148.774 110.568 147.936C110.091 147.572 109.522 147.353 108.926 147.302C108.086 147.307 107.264 147.543 106.549 147.985C101.138 150.838 96.0865 154.331 91.5041 158.389C86.9146 162.432 82.8124 166.998 79.281 171.996C79.173 172.151 78.9175 172.003 79.0265 171.848C79.4559 171.239 79.8938 170.636 80.3402 170.04C85.891 162.637 92.697 156.27 100.447 151.232C101.751 150.384 103.08 149.577 104.433 148.809C105.114 148.421 105.799 148.039 106.496 147.68C107.163 147.288 107.912 147.055 108.684 147C111.339 146.959 112.714 149.974 113.658 152.003C113.955 152.642 114.255 153.278 114.559 153.913C115.707 156.322 116.9 158.709 118.137 161.074C118.901 162.535 119.681 163.987 120.478 165.43C122.958 169.924 125.594 174.327 128.385 178.64C132.084 184.352 135.753 189.398 139.966 194.74C140.082 194.888 139.875 195.098 139.758 194.949Z" fill="white"/>
<path d="M91.7638 156.227C91.6166 156.043 91.4702 155.858 91.322 155.673C90.1533 154.219 88.8992 152.781 87.2942 151.948C86.5289 151.537 85.6935 151.32 84.8459 151.309C83.9714 151.336 83.1091 151.548 82.3039 151.933C81.9212 152.105 81.5469 152.3 81.1783 152.508C80.7571 152.747 80.3434 153.001 79.9317 153.257C79.1587 153.739 78.3958 154.241 77.6429 154.765C76.1449 155.806 74.6938 156.928 73.2895 158.128C72.5616 158.751 71.8487 159.394 71.1508 160.058C70.5017 160.674 69.8658 161.307 69.2429 161.957C69.1097 162.095 68.9109 161.871 69.044 161.733C69.2082 161.561 69.3742 161.39 69.5403 161.221C70.0093 160.744 70.4858 160.276 70.9698 159.817C71.8525 158.979 72.758 158.173 73.6863 157.4C75.13 156.197 76.6233 155.075 78.1663 154.035C78.9374 153.516 79.7191 153.018 80.5113 152.543C80.7506 152.399 80.9926 152.259 81.2374 152.126C81.7929 151.811 82.3701 151.546 82.9633 151.335C83.8037 151.029 84.6929 150.931 85.5701 151.047C86.4171 151.186 87.2331 151.504 87.9752 151.983C89.5511 152.975 90.7733 154.507 91.9627 156.003C92.0828 156.155 91.8848 156.379 91.7638 156.227Z" fill="white"/>
<path d="M125.179 170.198L129.151 168.774L131.123 168.068C131.76 167.816 132.41 167.597 133.07 167.411C133.647 167.249 134.26 167.257 134.832 167.433C135.343 167.618 135.81 167.902 136.207 168.267C136.612 168.633 136.989 169.027 137.334 169.447C137.764 169.953 138.187 170.463 138.611 170.973C140.365 173.074 142.107 175.184 143.838 177.304C145.569 179.423 147.288 181.552 148.995 183.689C150.707 185.832 152.407 187.984 154.095 190.145C154.302 190.409 154.509 190.674 154.715 190.939C154.829 191.085 155.086 190.941 154.971 190.793C153.27 188.61 151.558 186.437 149.833 184.272C148.105 182.103 146.364 179.942 144.612 177.791C142.859 175.64 141.095 173.498 139.319 171.365C138.876 170.834 138.433 170.303 137.989 169.773C137.615 169.326 137.244 168.874 136.834 168.457C136.127 167.624 135.112 167.099 134.01 167C133.35 167.023 132.699 167.163 132.09 167.414C131.426 167.649 130.763 167.889 130.1 168.126L126.101 169.56L125.101 169.918C124.923 169.982 125 170.262 125.179 170.198L125.179 170.198Z" fill="white"/>
<path d="M87.7788 153.555C85.5975 152.694 83.0061 152.843 81 153.944C84.7136 154.457 88.3865 155.143 92 156C90.4995 155.296 89.3257 154.192 87.7788 153.555Z" fill="white"/>
<path d="M81.0355 153.97L80.9606 154.03C80.9859 154.009 81.0123 153.989 81.0393 153.97L81.0355 153.97Z" fill="white"/>
<path d="M136.886 170.113C136.549 169.625 136.079 169.239 135.53 169L135 169.021C139.031 176.023 144.476 182.141 151 187L136.886 170.113Z" fill="white"/>
<circle cx="134" cy="159" r="3" fill="white"/>
<path d="M179 193C180.104 192.998 180.998 191.972 181 190.706V143.294C181 142.027 180.105 141 179 141C177.895 141 177 142.027 177 143.294V190.706C177.002 191.972 177.896 192.998 179 193Z" fill="#3F3D56"/>
<path d="M179 194C180.104 193.998 180.998 192.935 181 191.623V181.205C180.533 180.447 179.79 180 179 180C178.21 180 177.467 180.447 177 181.205V191.623C177.002 192.935 177.896 193.998 179 194Z" fill="#2F2E41"/>
<path d="M179.5 184C180.88 183.998 181.998 182.859 182 181.453V170.291C181.416 169.479 180.488 169 179.5 169C178.512 169 177.584 169.479 177 170.291V181.453C177.002 182.859 178.12 183.998 179.5 184Z" fill="#0052FF"/>
<path d="M179.5 182C180.328 181.998 180.999 181.163 181 180.132V171.946C180.65 171.351 180.093 171 179.5 171C178.907 171 178.35 171.351 178 171.946V180.132C178.001 181.163 178.672 181.998 179.5 182Z" fill="#3F3D56"/>
<path d="M108.676 247.472C107.842 246.707 107.77 245.395 108.515 244.539L128.458 221.693C128.941 221.14 129.676 220.892 130.385 221.044C131.095 221.195 131.672 221.723 131.898 222.428C132.125 223.133 131.967 223.908 131.484 224.462L111.541 247.308C110.794 248.162 109.512 248.236 108.676 247.472Z" fill="#0052FF"/>
<path d="M274 283.88C274 287.609 273.115 290.464 273.223 292.746C267.152 295.379 260.909 297.605 254.538 299.407C253.817 299.611 253.097 299.806 252.371 300C248.444 288.049 244.511 277.106 242.962 275.945C239.415 273.3 237.639 284.243 237.639 281.598C237.639 278.953 239.415 278.953 234.983 275.428C230.546 271.903 233.208 256.038 233.208 256.038L227 240.174L233.944 214.87L242.962 182H251.831C251.831 182 252.093 182.189 252.531 182.542C254.749 184.343 261.441 190.36 260.699 196.985C260.478 198.959 260.972 204.7 261.832 212.343C264.447 235.421 270.454 260.51 270.454 267.13C270.454 275.945 274 278.59 274 283.88Z" fill="#E6E6E6"/>
<path d="M266.771 212.394C266.761 212.369 266.756 212.348 266.746 212.328C266.547 211.798 266.315 211.281 266.051 210.78C264.554 207.994 266.139 203.717 264.451 198.991C261.725 191.332 258.402 186.815 253.531 182.767C253.387 182.644 253.243 182.527 253.094 182.405L253.089 182.4C249.838 179.757 245.918 177.287 241.052 174.211C240.039 173.57 238.979 172.903 237.879 172.2C236.459 171.298 236.536 168.294 236.618 165.116C236.711 161.587 236.809 157.931 235.06 155.649L234.947 155.502L234.767 155.456C228.77 154.282 222.655 153.815 216.548 154.066H216.542C213.949 154.161 211.374 154.535 208.863 155.181C208.678 155.232 208.492 155.283 208.312 155.344C208.173 155.38 208.035 155.425 207.896 155.471L207.783 155.512L207.695 155.593C206.003 157.269 205.612 160.273 205.427 163.405V163.41C205.391 163.981 205.36 164.551 205.334 165.121C205.19 168.167 205.056 171.044 203.925 172.291C201.401 175.123 198.35 177.446 194.939 179.136C189.625 181.733 185.423 181.651 185.361 181.651L184.872 181.636L184.826 182.115C181.297 188.77 181.431 205.942 181.323 224.331C181.318 225.354 181.311 226.383 181.302 227.417C181.241 235.982 181.076 244.695 180.428 252.634C180.145 256.046 179.78 259.311 179.291 262.361C176.915 277.215 166.149 264.882 161 274.766C161.169 275.738 161.454 276.687 161.849 277.592C162.44 277.939 163.047 278.275 163.649 278.611C166.319 280.082 169.038 281.456 171.807 282.731C171.961 282.802 172.116 282.873 172.27 282.939C177.349 285.266 182.584 287.243 187.938 288.857C188.982 289.172 190.026 289.473 191.081 289.758C200.408 292.307 210.013 293.732 219.685 294C219.724 293.996 219.764 293.994 219.804 293.995C231.243 293.682 242.607 292.06 253.67 289.162C253.824 289.122 253.979 289.081 254.133 289.04C254.858 288.846 255.578 288.653 256.299 288.449C262.665 286.656 268.903 284.441 274.97 281.819C274.977 282.043 274.999 282.266 275.037 282.486C275.042 282.558 275.053 282.629 275.068 282.7C275.078 282.618 275.089 282.537 275.094 282.456C275.125 282.216 275.15 281.972 275.176 281.727C278.324 251.336 271.786 225.533 266.771 212.394Z" fill="#3F3D56"/>
<path d="M197.492 138.173C203.893 149.875 217.555 155.573 230.375 151.887C243.195 148.201 251.743 136.117 250.949 122.803C250.155 109.489 240.231 98.5063 227.063 96.37C213.896 94.2337 201.008 101.515 196.044 113.895C195.913 114.221 195.796 114.547 195.679 114.887C192.923 122.551 193.583 131.028 197.492 138.173Z" fill="#FFB6B6"/>
<path d="M193.189 115C194.436 111.573 193.892 113.358 195.152 109.944C194.33 112.967 195.629 114.661 195.51 115H230V95.2973C219.896 91.3619 210.017 88.013 204.05 95.2973C192.977 95.2977 184 104.119 184 115H193.189Z" fill="#2F2E41"/>
<path d="M205.109 169C205.135 168.634 205.174 168.256 205.225 167.89C205.586 165.2 206.488 162.615 207.404 160.055C208.37 157.3 209.35 154.531 210.329 151.776C209.068 156.778 209.453 162.06 211.425 166.819C217.083 162.353 213.513 152.142 220.911 152.142C238.698 152.142 257 137.53 257 119.496C257 101.476 249.37 88 231.583 88C213.784 88 199.348 96.2527 199 114.273C220.911 119.496 200.972 167.172 205.109 169Z" fill="#2F2E41"/>
<circle cx="255.5" cy="96.5" r="20.5" fill="#2F2E41"/>
<path d="M288 216.785C287.928 217.854 287.865 218.993 287.81 220.2C286.722 242.95 287.661 273.575 280.328 290.192C278.685 291.079 277.026 291.927 275.35 292.736C275.283 292.766 275.221 292.797 275.165 292.827C274.713 293.045 274.262 293.258 273.81 293.461C273.794 293.475 273.774 293.485 273.754 293.491C268.794 295.805 263.683 297.788 258.455 299.425C257.814 299.628 257.167 299.821 256.52 300.013C256.382 300.054 256.243 300.094 256.105 300.135C246.255 303.011 236.072 304.628 225.805 304.944C225.272 304.959 224.748 304.97 224.24 304.98C224.061 304.985 223.886 304.99 223.712 304.99C223.137 304.995 222.567 305 221.992 305C220.833 305 219.678 304.983 218.528 304.949C208.878 304.682 199.295 303.265 189.989 300.728C188.937 300.444 187.895 300.145 186.854 299.831C181.512 298.225 176.289 296.257 171.221 293.942C171.068 293.876 170.914 293.805 170.76 293.734C167.999 292.467 165.285 291.101 162.62 289.634C162.02 289.3 161.414 288.965 160.824 288.621C160.43 287.72 160.146 286.775 159.977 285.808C158.812 280.279 157.878 284.009 157.211 272.505C156.6 261.959 156.21 251.383 156.067 245.337C156.021 243.725 156.005 242.433 156 241.551C156.544 237.71 165.289 233.351 178.042 229.211C179.248 228.821 180.495 228.43 181.773 228.045C185.222 226.996 188.906 225.968 192.755 224.974C202.557 222.44 213.442 220.114 224.245 218.193C229.577 217.251 234.889 216.405 240.047 215.685C249.094 214.418 257.655 213.541 264.978 213.181C265.681 213.146 266.369 213.116 267.046 213.095C267.775 213.065 268.488 213.045 269.186 213.029C279.738 212.801 286.943 213.886 288 216.785Z" fill="#2F2E41"/>
<path opacity="0.2" d="M288 215.816C287.928 216.894 287.865 218.042 287.81 219.26C279.814 210.686 193.679 248.99 157.211 272C156.6 261.366 156.21 250.702 156.067 244.606C156.021 242.981 156.005 241.678 156 240.788C156.544 236.915 165.289 232.521 178.042 228.346C179.248 227.952 180.495 227.559 181.773 227.17C185.222 226.113 188.906 225.075 192.755 224.074C202.557 221.519 213.442 219.173 224.245 217.237C229.577 216.286 234.889 215.433 240.047 214.707C249.094 213.43 257.655 212.546 264.978 212.183C265.681 212.147 266.369 212.116 267.046 212.096C267.775 212.065 268.488 212.045 269.186 212.03C279.738 211.8 286.943 212.893 288 215.816Z" fill="black"/>
<path d="M112.979 242.591C114.621 244.66 117.095 245.895 119.735 245.965C122.376 246.036 124.911 244.933 126.66 242.954L156 255L152.834 238.83L125.458 229.87C121.859 227.092 116.75 227.444 113.567 230.69C110.383 233.935 110.131 239.048 112.979 242.591Z" fill="#FFB6B6"/>
<path d="M210.825 176.017L210.666 176L193.677 177.224C189.314 177.538 185.297 179.696 182.648 183.15C182.039 183.941 181.512 184.791 181.074 185.687L181.07 185.689C179.606 188.662 179.164 192.03 179.813 195.276L187.812 235.224L168.567 233.489L161.543 234.681L153.253 231.362L136.243 231.649L135.848 232.943L132.28 244.68L132 245.602L157.975 261.843L165.505 259.57L169.053 262.274L169.223 262.278L176.258 262.416L206.26 263L214.461 248.584L215.743 246.324C225.267 225.153 227.617 210.374 226.872 200.192C226.481 194.813 225.227 190.723 223.71 187.641C219.018 178.118 211.156 176.097 210.825 176.017Z" fill="#3F3D56"/>
<path fill-rule="evenodd" clip-rule="evenodd" d="M257.454 114.482C249.439 112.644 242.901 106.752 240.123 98.8641C239.728 97.6967 239.413 96.4924 239.098 95.2884C238.439 92.7682 237.78 90.2495 236.394 88.075C239.514 83.7035 242.016 78.906 243.826 73.8236C243.889 73.6474 243.959 73.4584 244.033 73.2595C244.785 71.2364 245.919 68.1872 243.386 67.2017C241.17 66.3394 238.652 68.4207 237.338 70.063C236.34 71.3074 235.624 72.7619 235.242 74.322L233.882 68.1978C233.763 67.7909 233.35 67.552 232.946 67.6556C229.233 68.3015 226.54 71.8097 226.072 75.5048C225.817 77.4071 226.241 79.3397 227.267 80.9493C228.328 82.5959 229.827 83.8281 231.315 85.0511C231.5 85.2033 231.685 85.3554 231.869 85.5081C233.637 86.9755 235.135 88.5383 236.086 90.6841C236.794 92.2831 237.223 93.9902 237.651 95.6915L237.651 95.6915C237.819 96.3632 237.988 97.034 238.173 97.6969C240.707 106.859 247.95 113.874 257.049 115.979C258.004 116.192 258.411 114.696 257.454 114.482ZM236.485 77.3727C236.365 75.4226 236.87 73.4858 237.924 71.8542C238.451 71.0268 239.111 70.2966 239.878 69.6944C240.604 69.1281 241.676 68.3782 242.637 68.5862C243.831 68.8447 243.421 70.1588 243.151 71.0214L243.117 71.1317C242.768 72.2612 242.384 73.3786 241.965 74.4841C241.149 76.6309 240.202 78.7233 239.13 80.7492C238.573 81.8036 237.978 82.8358 237.357 83.8511L236.072 78.0617C236.35 77.9578 236.521 77.6723 236.485 77.3727ZM232.578 69.345C229.175 70.5471 227.086 74.0443 227.599 77.6816C228.07 80.5044 230.283 82.2935 232.446 84.0417C233.446 84.8506 234.436 85.6507 235.238 86.5405C235.279 86.587 235.318 86.6349 235.357 86.6829C235.383 86.7152 235.41 86.7476 235.437 86.7796C235.695 86.4105 235.952 86.0411 236.201 85.666L232.578 69.345Z" fill="#0052FF"/>
</svg>
