<svg width="239" height="260" viewBox="0 0 239 260" fill="none" xmlns="http://www.w3.org/2000/svg">
<path d="M195.057 121.928C202.499 126.697 209.47 133.082 216 140.958V153C212.814 151.922 200.651 147.455 195.849 140.389C190.299 132.224 189.312 119.828 193.935 116.725C195.139 115.918 196.601 115.818 198.206 116.26C203.266 119.877 208.105 124.262 212.728 129.373C214.366 131.874 215.379 135.059 216 138.278V138.43C210.02 130.157 202.989 124.79 195.057 121.928Z" fill="#0052FF"/>
<path d="M195.738 48.4111C202.989 53.1378 209.781 59.4671 216.144 67.2738V70C215.535 69.79 214.595 69.4548 213.436 68.9942C208.233 62.757 202.3 58.5571 195.738 56.1477C200.329 59.1392 204.738 62.7754 208.969 67.0232C204.494 64.8459 199.261 61.6186 196.51 57.4998C196.219 57.0651 195.942 56.6266 195.679 56.1845C191.052 48.4184 190.746 39.9007 195.009 36.9903C199.513 33.914 207.409 38.2723 212.817 46.3627C215.943 51.0452 216.821 58.3103 217 63.597C216.712 63.9802 216.428 64.3707 216.144 64.7685C210.317 56.5677 203.466 51.2478 195.738 48.4111V48.4111Z" fill="#0052FF"/>
<path d="M237.351 91.8393V91.8431C236.812 93.3146 236.137 94.8012 235.333 96.2653C234.138 98.4446 232.301 100.467 230.222 102.275C227.996 104.215 225.484 105.907 223.174 107.282C219.949 109.203 217.115 110.506 216 111V109.82C222.408 102.294 229.221 96.1605 236.486 91.5398C228.769 94.3032 221.899 99.3957 216 107.158V101.957C222.408 94.4305 229.221 88.297 236.486 83.6763C228.769 86.4397 221.899 91.5323 216 99.2946V94.0935C222.324 86.6681 229.039 80.5983 236.198 76C239.551 78.6623 239.843 85.0842 237.351 91.8393V91.8393Z" fill="#0052FF"/>
<circle cx="53.5" cy="90.5" r="53.5" fill="#F66254"/>
<path d="M221.078 176.199C225.618 179.993 227.326 185.394 224.891 188.26C222.456 191.126 216.802 190.373 212.26 186.577C210.424 185.085 208.976 183.179 208.036 181.017L189 164.698L196.91 156L214.836 173.011C217.143 173.564 219.284 174.657 221.078 176.199Z" fill="#FCB4B4"/>
<path d="M205 164.307L182.177 134.814L160.561 95L160 150.218L192.402 177L205 164.307Z" fill="#2F2E41"/>
<path d="M106 83L111.192 59L128.545 59.8487L133 77.2593L106 83Z" fill="#FCB4B4"/>
<path opacity="0.1" d="M106 83L111.192 59L128.545 59.8487L133 77.2593L106 83Z" fill="black"/>
<circle cx="119.5" cy="45.5" r="19.5" fill="#FCB4B4"/>
<path d="M110.338 53.8774V53.8774C110.338 53.8774 108.361 53.8581 104.249 53.0875C100.138 52.3169 107.276 62 107.276 62C87.9284 53.8573 94.1198 33.2036 94.1198 33.2036C74.4836 29.4188 82.7096 11.825 82.7096 11.825C82.7096 11.825 89.1823 -0.764447 109.08 0.0366741C128.978 0.837795 119.578 20.6172 119.578 20.6172C132.541 20.642 134 32.4176 134 32.4176C134 32.4176 129.327 33.0056 120.834 35.1781C112.34 37.3506 110.338 53.8774 110.338 53.8774L110.338 53.8774L110.338 53.8774L110.338 53.8774Z" fill="#2F2E41"/>
<path d="M109 75.7586L108.106 74C108.106 74 92.1912 75.8624 89.5799 78.3208C86.9686 80.7792 81 91.7013 81 91.7013L94.0564 103L109 75.7586Z" fill="#FFB6B6"/>
<path d="M129 74.7542C129 74.7542 140.865 71.571 147.539 78.2839C154.213 84.9967 162 97.3036 162 97.3036L161.629 107L143.09 98.0113L129 74.7542V74.7542Z" fill="#FFB6B6"/>
<path d="M132.797 74.3043C132.797 74.3043 148.246 68.7335 158.216 80.6179C168.185 92.5022 171.139 130.012 171.139 130.012C171.139 130.012 193.662 199.462 188.124 200.204C182.585 200.947 148.785 203 148.785 203L137.169 127.413L132 74.3043H132.797Z" fill="#2F2E41"/>
<path d="M95.75 141L92 154.304L143 158C143 158 141.125 146.878 143 142.83L95.75 141Z" fill="#FCB4B4"/>
<path d="M125 228.112L127.208 260L155 259.258L154.073 227L125 228.112Z" fill="#FCB4B4"/>
<path d="M81.271 224L73 259L102.487 258.8L110 230.191L81.271 224Z" fill="#FCB4B4"/>
<path d="M131.148 74H108.41L90 98.6269L94.0777 149C94.0777 149 103.345 146.388 116.32 146.388H144.122C144.122 146.388 140.045 133.328 145.234 128.104C150.424 122.881 146.717 98.6269 146.717 98.6269L131.148 74Z" fill="#0052FF"/>
<path d="M90.832 150L70 225.58C70 225.58 100.675 237.916 119.19 234.354C137.704 230.792 163 229.675 163 229.675L145.144 152.979L90.832 150V150Z" fill="#2F2E41"/>
<path d="M139.078 177.199C143.618 180.993 145.326 186.394 142.891 189.26C140.456 192.126 134.802 191.373 130.26 187.577C128.424 186.085 126.976 184.179 126.036 182.017L107 165.698L114.91 157L132.836 174.011C135.143 174.564 137.284 175.657 139.078 177.199Z" fill="#FCB4B4"/>
<path d="M127 164.307L104.177 134.814L82.5605 95L82 150.218L114.402 177L127 164.307Z" fill="#2F2E41"/>
<path d="M110.203 74.3043C110.203 74.3043 94.7537 68.7335 84.7844 80.6179C74.8151 92.5022 71.8612 130.012 71.8612 130.012C71.8612 130.012 49.3379 199.462 54.8764 200.204C60.4149 200.947 94.2145 203 94.2145 203L105.831 127.413L111 74.3043H110.203Z" fill="#2F2E41"/>
<rect x="216" y="60" width="1" height="129" fill="#3F3D56"/>
<path d="M10.0565 191.928C17.4989 196.697 24.4701 203.082 31 210.958V223C27.8136 221.922 15.6514 217.455 10.8494 210.389C5.29935 202.224 4.31201 189.828 8.93453 186.725C10.1388 185.918 11.6011 185.818 13.2055 186.26C18.2656 189.877 23.1051 194.262 27.7276 199.373C29.3657 201.874 30.3792 205.059 31 208.278V208.43C25.0199 200.157 17.9888 194.79 10.0565 191.928Z" fill="#0052FF"/>
<path d="M9.73777 118.411C16.9892 123.138 23.7814 129.467 30.1437 137.274V140C29.5352 139.79 28.595 139.455 27.4363 138.994C22.2328 132.757 16.3005 128.557 9.73777 126.148C14.3291 129.139 18.7382 132.775 22.9688 137.023C18.4941 134.846 13.2614 131.619 10.5103 127.5C10.2188 127.065 9.94183 126.627 9.67948 126.185C5.05171 118.418 4.74561 109.901 9.00899 106.99C13.5129 103.914 21.4092 108.272 26.8168 116.363C29.9433 121.045 30.8215 128.31 31 133.597C30.7122 133.98 30.4279 134.371 30.1437 134.769C24.3171 126.568 17.4665 121.248 9.73777 118.411V118.411Z" fill="#0052FF"/>
<path d="M52.3508 161.839V161.843C51.8121 163.315 51.1368 164.801 50.3325 166.265C49.1376 168.445 47.3014 170.467 45.2225 172.275C42.9956 174.215 40.4842 175.907 38.1738 177.282C34.9492 179.203 32.1153 180.506 31 181V179.82C37.4075 172.294 44.2209 166.16 51.4858 161.54C43.7695 164.303 36.8992 169.396 31 177.158V171.957C37.4075 164.431 44.2209 158.297 51.4858 153.676C43.7695 156.44 36.8992 161.532 31 169.295V164.094C37.324 156.668 44.0389 150.598 51.1975 146C54.5512 148.662 54.8432 155.084 52.3508 161.839V161.839Z" fill="#0052FF"/>
<rect x="30" y="130" width="1" height="129" fill="#3F3D56"/>
</svg>
