<svg width="266" height="260" viewBox="0 0 266 260" fill="none" xmlns="http://www.w3.org/2000/svg">
<path d="M82.7194 191.126H49.281C48.438 191.126 47.7521 190.425 47.7521 189.563C47.7521 188.701 48.438 188 49.281 188H82.7194C83.5624 188 84.248 188.701 84.248 189.563C84.248 190.425 83.5624 191.126 82.7194 191.126H82.7194H82.7194Z" fill="#0052FF"/>
<path d="M23 199.494C23 199.775 23.2206 200 23.4952 200H108.505C108.779 200 109 199.775 109 199.494C109 199.213 108.779 198.987 108.505 198.987H23.4952C23.2206 198.987 23 199.213 23 199.494Z" fill="#3F3D56"/>
<circle cx="202" cy="72" r="27" fill="#F66254"/>
<path d="M0 232.5C0 232.777 0.220227 233 0.494469 233H217.506C217.78 233 218 232.777 218 232.5C218 232.223 217.78 232 217.506 232H0.494469C0.220227 232 0 232.223 0 232.5Z" fill="#3F3D56"/>
<path d="M2.69322 199L2 198.242L69.6572 136.625L94.0328 147.531L120.355 102.48L141.981 92.0761L162.018 125.406C172.836 97.4547 199.966 68.2112 232.475 38.5417L233.274 39.188C202.784 68.3217 176.698 97.5877 161.893 127.193L143.359 96.273C142.484 94.8123 140.644 94.2481 139.097 94.9662L139.097 94.9662C127.276 100.456 117.416 109.416 110.836 120.65L94.3473 148.797L90.5834 147.113C77.9958 141.481 63.2597 143.841 53.0699 153.121L2.69322 199Z" fill="#3F3D56"/>
<path d="M234 44.1513L232.973 44.2225L231.315 40.6374L227.604 39.8851L227.46 38.8676L233.577 38L234 44.1513Z" fill="#3F3D56"/>
<path d="M129 66.4553L132.63 52.6719L146.77 52L151 71L129 66.4553Z" fill="#FFB6B6"/>
<path opacity="0.1" d="M129 66.4553L132.63 52.6719L146.77 52L151 71L129 66.4553Z" fill="black"/>
<circle cx="138" cy="43" r="17" fill="#FFB6B6"/>
<path d="M148.084 46.3374H148.084C148.084 46.3374 141.549 33.5765 133.893 34.3132C126.236 35.05 122.202 35.946 122.202 35.946C122.202 35.946 119.929 26.0071 130.63 22.1842C130.63 22.1842 117.024 8.96609 133.223 2.48203C149.421 -4.00204 158.486 4.26756 158.486 4.26756C158.486 4.26756 170.476 16.0647 155.375 24.882C155.375 24.882 166.588 39.7475 153.011 52C153.011 52 156.048 42.085 152.88 43.9135C149.711 45.742 148.084 46.3374 148.084 46.3374V46.3374L148.084 46.3374L148.084 46.3374Z" fill="#2F2E41"/>
<path d="M119.541 137L117.262 139.187L100.802 174.534L99 233H126.656L139.629 204.047L148.369 232.721H173.236L179 180.669L163.505 143.857L119.541 137Z" fill="#2F2E41"/>
<path d="M148.339 65H129.975L110 75.7973L114.658 96.672C114.658 96.672 113.583 109.269 116.091 118.626C118.599 127.984 117.524 140.221 117.524 140.221L163.567 144L165 101.531L164.283 73.098L148.339 65V65H148.339Z" fill="#E6E6E6"/>
<path d="M112.103 76C112.103 76 101.01 76.3589 99.2205 83.5369C97.4313 90.7149 96 127.682 96 127.682C96 127.682 97.0735 149.617 109.061 139.188C121.049 128.758 119.975 97.1751 119.975 97.1751L112.103 76V76Z" fill="#E6E6E6"/>
<path d="M220.952 260H155.048C152.816 260 151 258.19 151 255.964V188.036C151 185.81 152.816 184 155.048 184H220.952C223.184 184 225 185.81 225 188.036V255.964C225 258.19 223.184 260 220.952 260Z" fill="white"/>
<path fill-rule="evenodd" clip-rule="evenodd" d="M154.474 260H220.526C222.993 260 225 257.999 225 255.539V187.461C225 185.001 222.993 183 220.526 183H154.474C152.007 183 150 185.001 150 187.461V255.539C150 257.999 152.007 260 154.474 260ZM150.834 187.461C150.834 185.459 152.467 183.831 154.474 183.831H220.526C222.533 183.831 224.166 185.459 224.166 187.461V255.539C224.166 257.541 222.533 259.169 220.526 259.169H154.474C152.467 259.169 150.834 257.541 150.834 255.539V187.461Z" fill="#3F3D56"/>
<path d="M190.128 242H184.639C183.97 242 183.427 241.587 183.427 241.078V217.795C183.427 217.287 183.97 216.874 184.639 216.874H190.128C190.797 216.874 191.341 217.287 191.341 217.795V241.078C191.341 241.587 190.797 242 190.128 242Z" fill="#0052FF"/>
<path d="M171.979 228.279C171.439 228.279 171 228.613 171 229.024V241.052C171 241.463 171.439 241.797 171.979 241.797H177.469C178.009 241.797 178.448 241.463 178.448 241.052V229.024C178.448 228.613 178.009 228.279 177.469 228.279H171.979Z" fill="#0052FF"/>
<path d="M202.788 242H197.298C196.63 242 196.086 241.587 196.086 241.078V202.922C196.086 202.413 196.63 202 197.298 202H202.788C203.456 202 204 202.413 204 202.922V241.078C204 241.587 203.456 242 202.788 242Z" fill="#0052FF"/>
<path d="M86.447 74H80.292C79.5426 74 78.933 73.5246 78.933 72.9401V46.1647C78.933 45.5802 79.5426 45.1047 80.292 45.1047H86.447C87.1964 45.1047 87.806 45.5802 87.806 46.1647V72.9401C87.806 73.5246 87.1964 74 86.447 74V74V74Z" fill="#0052FF"/>
<path d="M66.098 58.2209C65.4926 58.2209 65 58.6052 65 59.0773V72.9101C65 73.3823 65.4926 73.7665 66.098 73.7665H72.2531C72.8585 73.7665 73.3511 73.3823 73.3511 72.9101V59.0773C73.3511 58.6052 72.8585 58.2209 72.2531 58.2209H66.098Z" fill="#0052FF"/>
<path d="M100.641 74H94.486C93.7366 74 93.127 73.5245 93.127 72.9401V29.0599C93.127 28.4755 93.7366 28 94.486 28H100.641C101.39 28 102 28.4755 102 29.0599V72.9401C102 73.5245 101.39 74 100.641 74V74V74Z" fill="#0052FF"/>
<path d="M177.965 192.983C181.195 192.676 183.419 188.351 182.933 183.32C182.767 181.307 182.117 179.364 181.037 177.651L180.414 171.957L180.51 171.929L182.075 144.93C182.439 138.652 179.931 132.484 175.099 128.407C172.225 125.983 169.158 124.755 167.187 127.819C163.915 132.903 168.153 153.86 170.936 165.775L172.015 178.507C171.282 180.392 171.015 182.423 171.237 184.431C171.722 189.46 174.734 193.289 177.965 192.983Z" fill="#FFB6B6"/>
<path d="M160 73.5772C160 73.5772 169.492 69.9699 173.873 80.7916C178.254 91.6132 183 145 183 145L160.73 141.032L160 73.5772V73.5771L160 73.5772Z" fill="#E6E6E6"/>
<path d="M31.6679 67.8856H19.0357C18.1926 67.8856 17.5067 67.2077 17.5067 66.3745C17.5067 65.5414 18.1927 64.8638 19.0357 64.8638H31.6679C32.5109 64.8638 33.1966 65.5414 33.1966 66.3745C33.1966 67.2077 32.5109 67.8856 31.6679 67.8856Z" fill="#E6E6E6"/>
<path d="M31.6679 46.4675H19.0357C18.1926 46.4675 17.5067 45.7896 17.5067 44.9564C17.5067 44.1233 18.1927 43.4457 19.0357 43.4457H31.6679C32.5109 43.4457 33.1966 44.1233 33.1966 44.9564C33.1966 45.7896 32.5109 46.4675 31.6679 46.4675Z" fill="#E6E6E6"/>
<path d="M31.6679 31.0219H19.0357C18.1926 31.0219 17.5067 30.3439 17.5067 29.5108C17.5067 28.6776 18.1927 28 19.0357 28H31.6679C32.5109 28 33.1966 28.6776 33.1966 29.5108C33.1966 30.3439 32.5109 31.0219 31.6679 31.0219Z" fill="#E6E6E6"/>
<path d="M17 73.5106C17 73.7821 17.2206 74 17.4952 74H102.505C102.779 74 103 73.7821 103 73.5106C103 73.2392 102.779 73.0212 102.505 73.0212H17.4952C17.2206 73.0212 17 73.2392 17 73.5106Z" fill="#3F3D56"/>
<path d="M180 202.5C180 202.777 180.221 203 180.495 203H265.505C265.779 203 266 202.777 266 202.5C266 202.223 265.779 202 265.505 202H180.495C180.221 202 180 202.223 180 202.5H180Z" fill="#3F3D56"/>
<path d="M155 242.5C155 242.777 155.221 243 155.495 243H240.505C240.779 243 241 242.777 241 242.5C241 242.223 240.779 242 240.505 242H155.495C155.221 242 155 242.223 155 242.5H155Z" fill="#3F3D56"/>
<path d="M99.0353 72.0172C95.8051 72.3237 93.5806 76.6489 94.0666 81.6801C94.233 83.6926 94.8832 85.6362 95.9631 87.3486L96.5857 93.0428L96.4903 93.0711L94.9254 120.07C94.5615 126.348 97.0694 132.516 101.901 136.593C104.775 139.017 107.842 140.245 109.813 137.181C113.085 132.097 108.847 111.14 106.064 99.2252L104.985 86.4928C105.718 84.6081 105.985 82.5768 105.763 80.569C105.278 75.5395 102.266 71.7108 99.0353 72.0172H99.0353V72.0172Z" fill="#FFB6B6"/>
</svg>
