<svg width="16" height="12" viewBox="0 0 16 12" fill="none" xmlns="http://www.w3.org/2000/svg">
<path d="M6.46875 8.12634C7.69792 7.62634 8.875 7.37634 10 7.37634C11.125 7.37634 12.2917 7.62634 13.5 8.12634C14.7292 8.60551 15.3438 9.24093 15.3438 10.0326V11.3763H4.65625V10.0326C4.65625 9.24093 5.26042 8.60551 6.46875 8.12634ZM4 4.68884H6V6.03259H4V8.03259H2.65625V6.03259H0.65625V4.68884H2.65625V2.68884H4V4.68884ZM11.875 5.25134C11.3542 5.77218 10.7292 6.03259 10 6.03259C9.27083 6.03259 8.64583 5.77218 8.125 5.25134C7.60417 4.73051 7.34375 4.10551 7.34375 3.37634C7.34375 2.64718 7.60417 2.02218 8.125 1.50134C8.64583 0.959676 9.27083 0.688843 10 0.688843C10.7292 0.688843 11.3542 0.959676 11.875 1.50134C12.3958 2.02218 12.6562 2.64718 12.6562 3.37634C12.6562 4.10551 12.3958 4.73051 11.875 5.25134Z" fill="black"/>
</svg>
