<svg width="15" height="12" viewBox="0 0 15 12" fill="none" xmlns="http://www.w3.org/2000/svg">
<path d="M12.1562 7.37634V6.03259H10.1562V4.03259H8.84375V6.03259H6.84375V7.37634H8.84375V9.37634H10.1562V7.37634H12.1562ZM12.8438 2.03259C13.2188 2.03259 13.5312 2.16801 13.7812 2.43884C14.0312 2.68884 14.1562 3.00134 14.1562 3.37634V10.0326C14.1562 10.4076 14.0312 10.7305 13.7812 11.0013C13.5312 11.2513 13.2188 11.3763 12.8438 11.3763H2.15625C1.78125 11.3763 1.46875 11.2513 1.21875 11.0013C0.96875 10.7305 0.84375 10.4076 0.84375 10.0326V2.03259C0.84375 1.65759 0.96875 1.34509 1.21875 1.09509C1.46875 0.824259 1.78125 0.688843 2.15625 0.688843H6.15625L7.5 2.03259H12.8438Z" fill="black"/>
</svg>
