<svg width="18" height="17" viewBox="0 0 18 17" fill="none" xmlns="http://www.w3.org/2000/svg">
<path d="M3.35413 0.0344238H14.4549C16.138 0.0344238 17.4987 1.39517 17.4987 3.07819V13.7493C17.4987 15.4323 16.138 16.793 14.4549 16.793H3.35413C1.67111 16.793 0.310364 15.4323 0.310364 13.7493V3.07819C0.310364 1.39517 1.67111 0.0344238 3.35413 0.0344238Z" fill="#330000"/>
<path fill-rule="evenodd" clip-rule="evenodd" d="M12.4854 5.54895C12.2491 5.55612 12.0199 5.46301 11.848 5.29829C11.6833 5.11925 11.5974 4.88291 11.6045 4.63941C11.5974 4.3959 11.6905 4.16673 11.8624 4.00201C12.0342 3.83728 12.2634 3.75134 12.4998 3.75134C12.7791 3.75134 12.9939 3.83728 13.1515 4.00201C13.309 4.17389 13.395 4.40307 13.3878 4.63941C13.395 4.88291 13.309 5.11925 13.1372 5.29829C12.9724 5.47018 12.7289 5.56328 12.4854 5.54895ZM5.95387 10.0609H8.61806L9.20533 11.7654C9.21965 11.8155 9.26979 11.8513 9.31992 11.8442H10.8167C10.8884 11.8442 10.9098 11.8084 10.8884 11.7296L8.2743 4.35294C8.26713 4.31713 8.23849 4.29564 8.18119 4.29564H6.32628C6.29048 4.3028 6.26183 4.33861 6.26899 4.37442C6.26899 4.53198 6.25467 4.68954 6.22602 4.83994C6.20572 4.90083 6.18902 4.95812 6.17337 5.01182L6.17337 5.01183L6.17335 5.01187C6.16692 5.03395 6.16066 5.05542 6.1544 5.07628L3.8483 11.7153C3.82681 11.8012 3.8483 11.8442 3.92708 11.8442H5.2735C5.33796 11.8513 5.39525 11.8084 5.40957 11.7439L5.95387 10.0609ZM8.18835 8.60705H6.36926C6.47668 8.30625 6.58411 7.96965 6.68438 7.60439C6.75532 7.3827 6.82351 7.16101 6.89066 6.94272L6.89066 6.94272L6.89067 6.94271L6.89072 6.94255L6.89081 6.94225C6.93207 6.8081 6.97295 6.67524 7.01382 6.54445C7.11408 6.23649 7.19286 5.92853 7.25732 5.62057H7.27164C7.29959 5.71639 7.32754 5.81665 7.35672 5.92137L7.35673 5.92141L7.35677 5.92154C7.37993 6.00462 7.40386 6.09051 7.4292 6.17919C7.4865 6.38689 7.55095 6.59458 7.62257 6.81659C7.65838 6.9276 7.6924 7.03682 7.72642 7.14604C7.76044 7.25526 7.79446 7.36447 7.83026 7.47548C7.89472 7.69033 7.95918 7.89803 8.02363 8.0914C8.08809 8.2776 8.14538 8.45665 8.18835 8.60705ZM11.6833 6.25081V11.7654C11.6833 11.837 11.7191 11.88 11.7907 11.88H13.1945C13.2589 11.88 13.2876 11.8442 13.2876 11.7654V6.25081C13.2876 6.18636 13.2589 6.15055 13.1945 6.15055H11.7764C11.712 6.15055 11.6833 6.17919 11.6833 6.25081Z" fill="#FF9A00"/>
</svg>
