<svg width="14" height="14" viewBox="0 0 14 14" fill="none" xmlns="http://www.w3.org/2000/svg">
<path d="M11.9375 2.53125C13.0833 3.80208 13.6562 5.29167 13.6562 7C13.6562 8.70833 13.0833 10.1979 11.9375 11.4688C10.7917 12.7396 9.375 13.4583 7.6875 13.625V12.2812C9 12.1146 10.1042 11.5312 11 10.5312C11.8958 9.51042 12.3438 8.33333 12.3438 7C12.3438 5.66667 11.8958 4.5 11 3.5C10.1042 2.47917 9 1.88542 7.6875 1.71875V0.375C9.375 0.541667 10.7917 1.26042 11.9375 2.53125ZM2.78125 12.1562L3.71875 11.2188C4.46875 11.8021 5.34375 12.1562 6.34375 12.2812V13.625C5.78125 13.5625 5.14583 13.3854 4.4375 13.0938C3.75 12.8021 3.19792 12.4896 2.78125 12.1562ZM1.71875 7.65625C1.82292 8.63542 2.17708 9.5 2.78125 10.25L1.84375 11.2188C0.989583 10.1562 0.5 8.96875 0.375 7.65625H1.71875ZM2.78125 3.71875C2.19792 4.48958 1.84375 5.36458 1.71875 6.34375H0.375C0.4375 5.78125 0.614583 5.15625 0.90625 4.46875C1.19792 3.76042 1.51042 3.19792 1.84375 2.78125L2.78125 3.71875ZM6.34375 1.71875C5.34375 1.84375 4.46875 2.19792 3.71875 2.78125L2.78125 1.84375C3.84375 0.989583 5.03125 0.5 6.34375 0.375V1.71875ZM7.6875 5.53125L9.65625 7C8.34375 7.97917 7.01042 8.97917 5.65625 10L7.6875 5.53125Z" fill="#5F646D"/>
</svg>
