<svg width="14" height="14" viewBox="0 0 14 14" fill="none" xmlns="http://www.w3.org/2000/svg">
<path d="M12.2383 0.25C12.6367 0.25 12.9883 0.402344 13.293 0.707031C13.5977 1.01172 13.75 1.36328 13.75 1.76172V6.26172H9.98828L10.7617 3.23828L7.73828 4.01172V0.25H12.2383ZM10.7617 10.7617L9.98828 7.73828H13.75V12.2383C13.75 12.6367 13.5977 12.9883 13.293 13.293C12.9883 13.5977 12.6367 13.75 12.2383 13.75H7.73828V9.98828L10.7617 10.7617ZM4.01172 7.73828L3.23828 10.7617L6.26172 9.98828V13.75H1.76172C1.36328 13.75 1.01172 13.5977 0.707031 13.293C0.402344 12.9883 0.25 12.6367 0.25 12.2383V7.73828H4.01172ZM0.25 1.76172C0.25 1.36328 0.402344 1.01172 0.707031 0.707031C1.01172 0.402344 1.36328 0.25 1.76172 0.25H6.26172V4.01172L3.23828 3.23828L4.01172 6.26172H0.25V1.76172Z" fill="black"/>
</svg>
