<svg width="16" height="14" viewBox="0 0 16 14" fill="none" xmlns="http://www.w3.org/2000/svg">
<path d="M14.0117 4.01172V2.5H1.98828V4.01172H14.0117ZM14.0117 11.5V7H1.98828V11.5H14.0117ZM14.0117 0.988281C14.4336 0.988281 14.7852 1.14062 15.0664 1.44531C15.3477 1.72656 15.4883 2.07812 15.4883 2.5V11.5C15.4883 11.9219 15.3477 12.2852 15.0664 12.5898C14.7852 12.8711 14.4336 13.0117 14.0117 13.0117H1.98828C1.56641 13.0117 1.21484 12.8711 0.933594 12.5898C0.652344 12.2852 0.511719 11.9219 0.511719 11.5V2.5C0.511719 2.07812 0.652344 1.72656 0.933594 1.44531C1.21484 1.14062 1.56641 0.988281 1.98828 0.988281H14.0117Z" fill="black"/>
</svg>
