<svg width="14" height="13" viewBox="0 0 14 13" fill="none" xmlns="http://www.w3.org/2000/svg">
<path d="M4.625 9.375C5.29167 10.0208 6.08333 10.3438 7 10.3438C7.91667 10.3438 8.69792 10.0208 9.34375 9.375C10.0104 8.70833 10.3438 7.91667 10.3438 7C10.3438 6.08333 10.0104 5.30208 9.34375 4.65625C8.69792 3.98958 7.91667 3.65625 7 3.65625C6.08333 3.65625 5.29167 3.98958 4.625 4.65625C3.97917 5.30208 3.65625 6.08333 3.65625 7C3.65625 7.91667 3.97917 8.70833 4.625 9.375ZM5 0.34375H9L10.2188 1.65625H12.3438C12.6979 1.65625 13 1.79167 13.25 2.0625C13.5208 2.33333 13.6562 2.64583 13.6562 3V11C13.6562 11.3542 13.5208 11.6667 13.25 11.9375C13 12.2083 12.6979 12.3438 12.3438 12.3438H1.65625C1.30208 12.3438 0.989583 12.2083 0.71875 11.9375C0.46875 11.6667 0.34375 11.3542 0.34375 11V3C0.34375 2.64583 0.46875 2.33333 0.71875 2.0625C0.989583 1.79167 1.30208 1.65625 1.65625 1.65625H3.78125L5 0.34375ZM5.5 8.5C5.08333 8.08333 4.875 7.58333 4.875 7C4.875 6.41667 5.08333 5.91667 5.5 5.5C5.91667 5.08333 6.41667 4.875 7 4.875C7.58333 4.875 8.08333 5.08333 8.5 5.5C8.91667 5.91667 9.125 6.41667 9.125 7C9.125 7.58333 8.91667 8.08333 8.5 8.5C8.08333 8.91667 7.58333 9.125 7 9.125C6.41667 9.125 5.91667 8.91667 5.5 8.5Z" fill="black"/>
</svg>
