<svg width="14" height="14" viewBox="0 0 14 14" fill="none" xmlns="http://www.w3.org/2000/svg">
<path d="M10.3438 7.03261C10.3438 7.22011 10.2708 7.37636 10.125 7.50136C10 7.62636 9.84375 7.68886 9.65625 7.68886H3L0.34375 10.3764V1.03261C0.34375 0.845108 0.40625 0.688858 0.53125 0.563858C0.65625 0.438858 0.8125 0.376358 1 0.376358H9.65625C9.84375 0.376358 10 0.438858 10.125 0.563858C10.2708 0.688858 10.3438 0.845108 10.3438 1.03261V7.03261ZM13 3.03261C13.1875 3.03261 13.3438 3.09511 13.4688 3.22011C13.5938 3.34511 13.6562 3.50136 13.6562 3.68886V13.6889L11 11.0326H3.65625C3.46875 11.0326 3.3125 10.9701 3.1875 10.8451C3.0625 10.7201 3 10.5639 3 10.3764V9.03261H11.6562V3.03261H13Z" fill="black"/>
</svg>
