<svg width="16" height="15" viewBox="0 0 16 15" fill="none" xmlns="http://www.w3.org/2000/svg">
<path d="M8 0.0117188C9.03125 0.0117188 9.99219 0.210938 10.8828 0.609375C11.7969 0.984375 12.5938 1.52344 13.2734 2.22656C13.9766 2.90625 14.5156 3.70312 14.8906 4.61719C15.2891 5.50781 15.4883 6.46875 15.4883 7.5C15.4883 8.53125 15.2891 9.50391 14.8906 10.418C14.5156 11.3086 13.9766 12.1055 13.2734 12.8086C12.5938 13.4883 11.7969 14.0273 10.8828 14.4258C9.99219 14.8008 9.03125 14.9883 8 14.9883C6.96875 14.9883 5.99609 14.8008 5.08203 14.4258C4.19141 14.0273 3.39453 13.4883 2.69141 12.8086C2.01172 12.1055 1.47266 11.3086 1.07422 10.418C0.699219 9.50391 0.511719 8.53125 0.511719 7.5C0.511719 6.46875 0.699219 5.50781 1.07422 4.61719C1.47266 3.70312 2.01172 2.90625 2.69141 2.22656C3.39453 1.52344 4.19141 0.984375 5.08203 0.609375C5.99609 0.210938 6.96875 0.0117188 8 0.0117188ZM8.73828 1.55859V6.76172H13.9414C13.8242 5.84766 13.5195 5.02734 13.0273 4.30078C12.5586 3.55078 11.9492 2.94141 11.1992 2.47266C10.4727 1.98047 9.65234 1.67578 8.73828 1.55859ZM1.98828 7.5C1.98828 8.25 2.11719 8.96484 2.375 9.64453C2.65625 10.3242 3.03125 10.9336 3.5 11.4727C3.99219 12.0117 4.55469 12.457 5.1875 12.8086C5.82031 13.1367 6.51172 13.3477 7.26172 13.4414V1.55859C6.51172 1.65234 5.82031 1.875 5.1875 2.22656C4.55469 2.55469 3.99219 2.98828 3.5 3.52734C3.03125 4.06641 2.65625 4.67578 2.375 5.35547C2.11719 6.03516 1.98828 6.75 1.98828 7.5ZM8.73828 13.4414C9.65234 13.3242 10.4727 13.0312 11.1992 12.5625C11.9492 12.0703 12.5586 11.4609 13.0273 10.7344C13.5195 9.98438 13.8242 9.15234 13.9414 8.23828H8.73828V13.4414Z" fill="black"/>
</svg>
