<svg width="18" height="18" viewBox="0 0 18 18" fill="none" xmlns="http://www.w3.org/2000/svg">
<path d="M3.92727 1.64355L9 1.125L14.0727 1.64355L18 6.74121L9 16.875L0 6.74121L3.92727 1.64355Z" fill="#FDB300"/>
<path d="M3.64545 6.75L9.00001 16.875L0 6.75H3.64545Z" fill="#EA6C00"/>
<path d="M14.3545 6.75L8.99999 16.875L18 6.75H14.3545Z" fill="#EA6C00"/>
<path d="M3.64551 6.75H14.3546L9.00007 16.875L3.64551 6.75Z" fill="#FDAD00"/>
<path d="M9.00006 1.125L3.92731 1.64436L3.64551 6.75L9.00006 1.125Z" fill="#FDD231"/>
<path d="M8.99994 1.125L14.0727 1.64436L14.3545 6.75L8.99994 1.125Z" fill="#FDD231"/>
<path d="M18 6.74999L14.0727 1.64435L14.3546 6.74999H18Z" fill="#FDAD00"/>
<path d="M0 6.74999L3.92725 1.64435L3.64545 6.74999H0Z" fill="#FDAD00"/>
<path d="M9.00006 1.125L3.64551 6.75H14.3546L9.00006 1.125Z" fill="#FEEEB7"/>
</svg>
