<svg width="18" height="17" viewBox="0 0 18 17" fill="none" xmlns="http://www.w3.org/2000/svg">
<path d="M2.32733 0.0344238H16.2933C17.0645 0.0344238 17.6897 0.659568 17.6897 1.43072V15.3967C17.6897 16.1679 17.0645 16.793 16.2933 16.793H2.32733C1.55617 16.793 0.93103 16.1679 0.93103 15.3967V1.43072C0.93103 0.659568 1.55617 0.0344238 2.32733 0.0344238Z" fill="url(#paint0_linear_81_7502)"/>
<path d="M6.59085 10.6674C6.61815 10.8831 6.63635 11.0705 6.64468 11.2313H6.67653C6.68866 11.0789 6.71393 10.8952 6.75236 10.6803C6.79078 10.4654 6.82541 10.2838 6.85625 10.1355L8.31828 3.79638H10.2088L11.7254 10.0402C11.8135 10.4284 11.8766 10.822 11.9142 11.2184H11.9392C11.9675 10.8343 12.0202 10.4525 12.097 10.0752L13.3065 3.79333H15.0271L12.9023 12.8774H10.892L9.45121 6.8615C9.4095 6.68851 9.36173 6.46217 9.30941 6.184C9.25708 5.90583 9.22447 5.70236 9.21158 5.57433H9.18655C9.16988 5.72216 9.13726 5.94166 9.08872 6.23277C9.04019 6.5239 9.00126 6.7393 8.97193 6.87902L7.61758 12.8759H5.57317L3.43701 3.79637H5.18871L6.5059 10.1484C6.53549 10.2787 6.56355 10.4525 6.59085 10.6674Z" fill="white"/>
<defs>
<linearGradient id="paint0_linear_81_7502" x1="-5.628" y1="4.41139" x2="5.308" y2="23.3521" gradientUnits="userSpaceOnUse">
<stop stop-color="#2368C4"/>
<stop offset="0.5" stop-color="#1A5DBE"/>
<stop offset="1" stop-color="#1146AC"/>
</linearGradient>
</defs>
</svg>
