<svg width="15" height="14" viewBox="0 0 15 14" fill="none" xmlns="http://www.w3.org/2000/svg">
<path d="M11.4375 10.6263C12.375 9.62634 12.8438 8.42843 12.8438 7.03259C12.8438 5.92843 12.5312 4.92843 11.9062 4.03259C11.3021 3.13676 10.5 2.49093 9.5 2.09509V2.37634C9.5 2.73051 9.36458 3.04301 9.09375 3.31384C8.82292 3.56384 8.51042 3.68884 8.15625 3.68884H6.84375V5.03259C6.84375 5.22009 6.77083 5.37634 6.625 5.50134C6.5 5.62634 6.34375 5.68884 6.15625 5.68884H4.84375V7.03259H8.84375C9.03125 7.03259 9.1875 7.09509 9.3125 7.22009C9.4375 7.34509 9.5 7.50134 9.5 7.68884V9.68884H10.1562C10.7812 9.68884 11.2083 10.0013 11.4375 10.6263ZM6.84375 12.3138V11.0326C6.48958 11.0326 6.17708 10.8972 5.90625 10.6263C5.63542 10.3555 5.5 10.043 5.5 9.68884V9.03259L2.3125 5.84509C2.20833 6.26176 2.15625 6.65759 2.15625 7.03259C2.15625 8.38676 2.60417 9.56384 3.5 10.5638C4.41667 11.5638 5.53125 12.1472 6.84375 12.3138ZM2.78125 2.34509C4.09375 1.03259 5.66667 0.376343 7.5 0.376343C9.33333 0.376343 10.8958 1.03259 12.1875 2.34509C13.5 3.63676 14.1562 5.19926 14.1562 7.03259C14.1562 8.86593 13.5 10.4388 12.1875 11.7513C10.8958 13.043 9.33333 13.6888 7.5 13.6888C5.66667 13.6888 4.09375 13.043 2.78125 11.7513C1.48958 10.4388 0.84375 8.86593 0.84375 7.03259C0.84375 5.19926 1.48958 3.63676 2.78125 2.34509Z" fill="black"/>
</svg>
