<svg width="18" height="17" viewBox="0 0 18 17" fill="none" xmlns="http://www.w3.org/2000/svg">
<path d="M6.64656 16.1724C8.13125 16.1724 9.33622 14.9674 9.33622 13.4827V10.7931H6.64656C5.16187 10.7931 3.95691 11.9981 3.95691 13.4827C3.95691 14.9674 5.16187 16.1724 6.64656 16.1724Z" fill="#0ACF83"/>
<path d="M3.95691 8.10335C3.95691 6.61866 5.16187 5.4137 6.64656 5.4137H9.33622V10.793H6.64656C5.16187 10.793 3.95691 9.58804 3.95691 8.10335Z" fill="#A259FF"/>
<path d="M3.95691 2.72408C3.95691 1.23939 5.16187 0.0344238 6.64656 0.0344238H9.33622V5.41373H6.64656C5.16187 5.41373 3.95691 4.20877 3.95691 2.72408Z" fill="#F24E1E"/>
<path d="M9.33624 0.0344238H12.0259C13.5106 0.0344238 14.7156 1.23939 14.7156 2.72408C14.7156 4.20877 13.5106 5.41373 12.0259 5.41373H9.33624V0.0344238Z" fill="#FF7262"/>
<path d="M14.7156 8.10335C14.7156 9.58804 13.5106 10.793 12.0259 10.793C10.5412 10.793 9.33624 9.58804 9.33624 8.10335C9.33624 6.61866 10.5412 5.4137 12.0259 5.4137C13.5106 5.4137 14.7156 6.61866 14.7156 8.10335Z" fill="#1ABCFE"/>
</svg>
