<svg width="18" height="13" viewBox="0 0 18 13" fill="none" xmlns="http://www.w3.org/2000/svg">
<path d="M8.71194 2.09365L7.86551 1.24722C7.64101 1.02272 7.33654 0.896606 7.01906 0.896606H1.52967C1.19911 0.896606 0.931152 1.16456 0.931152 1.49513V12.6675C0.931152 12.7777 1.02047 12.8671 1.13066 12.8671H17.4903C17.6005 12.8671 17.6898 12.7777 17.6898 12.6675V2.69217C17.6898 2.36161 17.4218 2.09365 17.0913 2.09365H8.71194Z" fill="#0052FF"/>
<path d="M8.71194 2.09365L7.86551 1.24722C7.64101 1.02272 7.33654 0.896606 7.01906 0.896606H1.52967C1.19911 0.896606 0.931152 1.16456 0.931152 1.49513V12.6675C0.931152 12.7777 1.02047 12.8671 1.13066 12.8671H17.4903C17.6005 12.8671 17.6898 12.7777 17.6898 12.6675V2.69217C17.6898 2.36161 17.4218 2.09365 17.0913 2.09365H8.71194Z" fill="black" fill-opacity="0.2"/>
<path d="M8.71194 2.09363L7.86551 2.94006C7.64101 3.16456 7.33654 3.29067 7.01906 3.29067H0.931152V12.6675C0.931152 12.7777 1.02047 12.867 1.13066 12.867H17.4903C17.6005 12.867 17.6898 12.7777 17.6898 12.6675V2.69215C17.6898 2.36159 17.4218 2.09363 17.0913 2.09363H8.71194Z" fill="#FFD75E"/>
<path d="M8.71194 2.09363L7.86551 2.94006C7.64101 3.16456 7.33654 3.29067 7.01906 3.29067H0.931152V12.6675C0.931152 12.7777 1.02047 12.867 1.13066 12.867H17.4903C17.6005 12.867 17.6898 12.7777 17.6898 12.6675V2.69215C17.6898 2.36159 17.4218 2.09363 17.0913 2.09363H8.71194Z" fill="#0052FF"/>
<path opacity="0.4" d="M0.931152 3.29067V3.49018H7.03618C7.40656 3.49018 7.76179 3.34304 8.02368 3.08113L9.0112 2.09363H8.71194L7.86551 2.94006C7.641 3.16456 7.33654 3.29067 7.01906 3.29067H0.931152Z" fill="white"/>
<path d="M17.4903 12.8671H1.13066C1.02047 12.8671 0.931152 12.7778 0.931152 12.6676V12.6676H17.6898V12.6676C17.6898 12.7778 17.6005 12.8671 17.4903 12.8671Z" fill="#0052FF"/>
<path d="M17.4903 12.8671H1.13066C1.02047 12.8671 0.931152 12.7778 0.931152 12.6676V12.6676H17.6898V12.6676C17.6898 12.7778 17.6005 12.8671 17.4903 12.8671Z" fill="black" fill-opacity="0.2"/>
</svg>
