<svg width="16" height="16" viewBox="0 0 16 16" fill="none" xmlns="http://www.w3.org/2000/svg">
<rect width="16" height="16" fill="white"/>
<path d="M5.85883 11.8528H10.1758V4.06055H5.85883V11.8528Z" fill="#FF5F00"/>
<path d="M6.13345 7.95564C6.13116 6.43673 6.82572 5.0007 8.01788 4.05951C5.98611 2.46256 3.06823 2.69504 1.31496 4.59356C-0.438319 6.49208 -0.438319 9.4192 1.31496 11.3177C3.06823 13.2162 5.98611 13.4487 8.01788 11.8518C6.82585 10.9105 6.13132 9.47451 6.13345 7.95564Z" fill="#EB001B"/>
<path d="M15.9999 7.95585C16.0103 9.84944 14.9349 11.5815 13.2332 12.4122C11.5315 13.2428 9.50437 13.0251 8.01788 11.852C9.20815 10.9093 9.90221 9.47421 9.90221 7.95585C9.90221 6.43749 9.20815 5.00242 8.01788 4.05972C9.50437 2.88664 11.5315 2.6689 13.2332 3.49952C14.9349 4.33015 16.0103 6.06226 15.9999 7.95585Z" fill="#F79E1B"/>
</svg>
