<svg width="12" height="12" viewBox="0 0 12 12" fill="none" xmlns="http://www.w3.org/2000/svg">
<path d="M11.5938 3.59375C11.8646 3.86458 12 4.1875 12 4.5625V10.6562C12 11.0312 11.8646 11.3542 11.5938 11.625C11.3438 11.875 11.0312 12 10.6562 12H1.34375C0.96875 12 0.645833 11.875 0.375 11.625C0.125 11.3542 0 11.0312 0 10.6562V1.34375C0 0.96875 0.125 0.65625 0.375 0.40625C0.645833 0.135417 0.96875 0 1.34375 0H7.4375C7.8125 0 8.125 0.125 8.375 0.375L11.5938 3.59375ZM2.65625 2.65625V4H7.34375V2.65625H2.65625ZM9.34375 9.34375V8H2.65625V9.34375H9.34375ZM9.34375 6.65625V5.34375H2.65625V6.65625H9.34375Z" fill="black"/>
</svg>
