<svg width="14" height="13" viewBox="0 0 14 13" fill="none" xmlns="http://www.w3.org/2000/svg">
<path d="M7.0625 10.4076C8.0625 9.51177 8.80208 8.83469 9.28125 8.37636C9.76042 7.91802 10.2812 7.37636 10.8438 6.75136C11.4062 6.12636 11.7917 5.57427 12 5.09511C12.2292 4.61594 12.3438 4.14719 12.3438 3.68886C12.3438 3.02219 12.1146 2.47011 11.6562 2.03261C11.2188 1.59511 10.6667 1.37636 10 1.37636C9.47917 1.37636 8.98958 1.52219 8.53125 1.81386C8.09375 2.10552 7.79167 2.48052 7.625 2.93886H6.375C6.20833 2.48052 5.89583 2.10552 5.4375 1.81386C5 1.52219 4.52083 1.37636 4 1.37636C3.33333 1.37636 2.77083 1.59511 2.3125 2.03261C1.875 2.47011 1.65625 3.02219 1.65625 3.68886C1.65625 4.14719 1.76042 4.61594 1.96875 5.09511C2.19792 5.57427 2.59375 6.12636 3.15625 6.75136C3.71875 7.37636 4.23958 7.91802 4.71875 8.37636C5.19792 8.83469 5.9375 9.51177 6.9375 10.4076L7 10.4701L7.0625 10.4076ZM10 0.032608C11.0417 0.032608 11.9062 0.386775 12.5938 1.09511C13.3021 1.80344 13.6562 2.66802 13.6562 3.68886C13.6562 4.29302 13.5417 4.88677 13.3125 5.47011C13.0833 6.03261 12.6562 6.66802 12.0312 7.37636C11.4271 8.08469 10.875 8.67844 10.375 9.15761C9.875 9.63677 9.07292 10.3764 7.96875 11.3764L7 12.2514L6.03125 11.4076C4.59375 10.1159 3.55208 9.14719 2.90625 8.50136C2.28125 7.85552 1.69792 7.09511 1.15625 6.22011C0.614583 5.34511 0.34375 4.50136 0.34375 3.68886C0.34375 2.66802 0.6875 1.80344 1.375 1.09511C2.08333 0.386775 2.95833 0.032608 4 0.032608C5.20833 0.032608 6.20833 0.501358 7 1.43886C7.79167 0.501358 8.79167 0.032608 10 0.032608Z" fill="black"/>
</svg>
