<svg width="15" height="12" viewBox="0 0 15 12" fill="none" xmlns="http://www.w3.org/2000/svg">
<path d="M7.5 5.34375L12.8438 2H2.15625L7.5 5.34375ZM12.8438 10V3.34375L7.5 6.65625L2.15625 3.34375V10H12.8438ZM12.8438 0.65625C13.1979 0.65625 13.5 0.791667 13.75 1.0625C14.0208 1.33333 14.1562 1.64583 14.1562 2V10C14.1562 10.3542 14.0208 10.6667 13.75 10.9375C13.5 11.2083 13.1979 11.3438 12.8438 11.3438H2.15625C1.80208 11.3438 1.48958 11.2083 1.21875 10.9375C0.96875 10.6667 0.84375 10.3542 0.84375 10V2C0.84375 1.64583 0.96875 1.33333 1.21875 1.0625C1.48958 0.791667 1.80208 0.65625 2.15625 0.65625H12.8438Z" fill="#5F646D"/>
</svg>
