<svg width="16" height="9" viewBox="0 0 16 9" fill="none" xmlns="http://www.w3.org/2000/svg">
<path d="M11.7617 0.738281C12.793 0.738281 13.6719 1.11328 14.3984 1.86328C15.125 2.58984 15.4883 3.46875 15.4883 4.5C15.4883 5.53125 15.125 6.42188 14.3984 7.17188C13.6719 7.89844 12.793 8.26172 11.7617 8.26172H8.73828V6.82031H11.7617C12.3945 6.82031 12.9336 6.59766 13.3789 6.15234C13.8477 5.68359 14.082 5.13281 14.082 4.5C14.082 3.86719 13.8477 3.32813 13.3789 2.88281C12.9336 2.41406 12.3945 2.17969 11.7617 2.17969H8.73828V0.738281H11.7617ZM5.01172 5.23828V3.76172H10.9883V5.23828H5.01172ZM2.58594 2.88281C2.14062 3.32813 1.91797 3.86719 1.91797 4.5C1.91797 5.13281 2.14062 5.68359 2.58594 6.15234C3.05469 6.59766 3.60547 6.82031 4.23828 6.82031H7.26172V8.26172H4.23828C3.20703 8.26172 2.32812 7.89844 1.60156 7.17188C0.875 6.42188 0.511719 5.53125 0.511719 4.5C0.511719 3.46875 0.875 2.58984 1.60156 1.86328C2.32812 1.11328 3.20703 0.738281 4.23828 0.738281H7.26172V2.17969H4.23828C3.60547 2.17969 3.05469 2.41406 2.58594 2.88281Z" fill="black"/>
</svg>
