<svg width="14" height="14" viewBox="0 0 14 14" fill="none" xmlns="http://www.w3.org/2000/svg">
<path fill-rule="evenodd" clip-rule="evenodd" d="M2.35156 3.82812C1.95052 3.82812 1.60417 3.68229 1.3125 3.39062C1.02083 3.09895 0.875 2.7526 0.875 2.35156C0.875 1.95052 1.02083 1.60417 1.3125 1.3125C1.60417 1.02083 1.95052 0.875 2.35156 0.875C2.7526 0.875 3.09895 1.02083 3.39062 1.3125C3.68229 1.60417 3.82812 1.95052 3.82812 2.35156C3.82812 2.7526 3.68229 3.09895 3.39062 3.39062C3.09895 3.68229 2.7526 3.82812 2.35156 3.82812ZM3.60937 13.125H1.06641V4.94921H3.60937V13.125ZM10.582 13.125H13.125V8.64061C13.125 7.3828 12.9427 6.45311 12.5781 5.85155C12.1041 5.10416 11.2747 4.73046 10.0898 4.73046C9.50649 4.73046 8.99607 4.87629 8.55858 5.16796C8.15753 5.40494 7.86587 5.70572 7.68358 6.0703H7.65623V4.94921H5.22265V13.125H7.73826V9.0781C7.73826 8.44009 7.82941 7.95701 8.0117 7.62889C8.24868 7.19139 8.65884 6.97264 9.24217 6.97264C9.8255 6.97264 10.2174 7.21873 10.4179 7.71092C10.5273 8.00259 10.582 8.47654 10.582 9.13279V13.125Z" fill="#017EB2"/>
</svg>
