<svg width="14" height="16" viewBox="0 0 14 16" fill="none" xmlns="http://www.w3.org/2000/svg">
<path d="M10.7617 6.75V5.23828H3.23828V6.75H10.7617ZM10.7617 9.73828V8.26172H3.23828V9.73828H10.7617ZM8.51172 12.7617V11.25H3.23828V12.7617H8.51172ZM7.52734 2.46094C7.38672 2.32031 7.21094 2.25 7 2.25C6.78906 2.25 6.61328 2.32031 6.47266 2.46094C6.33203 2.60156 6.26172 2.77734 6.26172 2.98828C6.26172 3.19922 6.33203 3.38672 6.47266 3.55078C6.61328 3.69141 6.78906 3.76172 7 3.76172C7.21094 3.76172 7.38672 3.69141 7.52734 3.55078C7.66797 3.38672 7.73828 3.19922 7.73828 2.98828C7.73828 2.77734 7.66797 2.60156 7.52734 2.46094ZM12.2383 2.25C12.6367 2.25 12.9883 2.40234 13.293 2.70703C13.5977 3.01172 13.75 3.36328 13.75 3.76172V14.2383C13.75 14.6367 13.5977 14.9883 13.293 15.293C12.9883 15.5977 12.6367 15.75 12.2383 15.75H1.76172C1.36328 15.75 1.01172 15.5977 0.707031 15.293C0.402344 14.9883 0.25 14.6367 0.25 14.2383V3.76172C0.25 3.36328 0.402344 3.01172 0.707031 2.70703C1.01172 2.40234 1.36328 2.25 1.76172 2.25H4.89062C5.05469 1.80469 5.32422 1.44141 5.69922 1.16016C6.07422 0.878906 6.50781 0.738281 7 0.738281C7.49219 0.738281 7.92578 0.878906 8.30078 1.16016C8.67578 1.44141 8.94531 1.80469 9.10938 2.25H12.2383Z" fill="#0052FF"/>
</svg>
