<svg width="13" height="12" viewBox="0 0 13 12" fill="none" xmlns="http://www.w3.org/2000/svg">
<path d="M11.1562 8V1.34375H1.8125V8H4.5C4.5 8.54167 4.69792 9.01042 5.09375 9.40625C5.48958 9.80208 5.95833 10 6.5 10C7.04167 10 7.51042 9.80208 7.90625 9.40625C8.30208 9.01042 8.5 8.54167 8.5 8H11.1562ZM11.1562 0C11.5312 0 11.8438 0.135417 12.0938 0.40625C12.3646 0.65625 12.5 0.96875 12.5 1.34375V10.6562C12.5 11.0104 12.3646 11.3229 12.0938 11.5938C11.8229 11.8646 11.5104 12 11.1562 12H1.8125C1.4375 12 1.125 11.875 0.875 11.625C0.625 11.3542 0.5 11.0312 0.5 10.6562V1.34375C0.5 0.96875 0.625 0.65625 0.875 0.40625C1.125 0.135417 1.4375 0 1.8125 0H11.1562Z" fill="#5F646D"/>
</svg>
