<svg width="12" height="12" viewBox="0 0 12 12" fill="none" xmlns="http://www.w3.org/2000/svg">
<path d="M10.6562 8V1.34375H1.3125V8H4C4 8.54167 4.19792 9.01042 4.59375 9.40625C4.98958 9.80208 5.45833 10 6 10C6.54167 10 7.01042 9.80208 7.40625 9.40625C7.80208 9.01042 8 8.54167 8 8H10.6562ZM10.6562 0C11.0312 0 11.3438 0.135417 11.5938 0.40625C11.8646 0.65625 12 0.96875 12 1.34375V10.6562C12 11.0104 11.8646 11.3229 11.5938 11.5938C11.3229 11.8646 11.0104 12 10.6562 12H1.3125C0.9375 12 0.625 11.875 0.375 11.625C0.125 11.3542 0 11.0312 0 10.6562V1.34375C0 0.96875 0.125 0.65625 0.375 0.40625C0.625 0.135417 0.9375 0 1.3125 0H10.6562Z" fill="black"/>
</svg>
