<svg width="16" height="10" viewBox="0 0 16 10" fill="none" xmlns="http://www.w3.org/2000/svg">
<path d="M5.85883 8.85281H10.1758V1.06055H5.85883V8.85281Z" fill="#7375CF"/>
<path d="M6.13345 4.95564C6.13116 3.43673 6.82572 2.0007 8.01788 1.05951C5.98611 -0.537442 3.06823 -0.304964 1.31496 1.59356C-0.438319 3.49208 -0.438319 6.4192 1.31496 8.31773C3.06823 10.2162 5.98611 10.4487 8.01788 8.85177C6.82585 7.91048 6.13132 6.47451 6.13345 4.95564Z" fill="#EB001B"/>
<path d="M15.9999 4.95585C16.0103 6.84944 14.9349 8.58155 13.2332 9.41218C11.5315 10.2428 9.50437 10.0251 8.01788 8.85198C9.20815 7.90928 9.90221 6.47421 9.90221 4.95585C9.90221 3.43749 9.20815 2.00242 8.01788 1.05972C9.50437 -0.113363 11.5315 -0.331103 13.2332 0.499525C14.9349 1.33015 16.0103 3.06226 15.9999 4.95585Z" fill="#00A2E5"/>
</svg>
