<svg width="14" height="15" viewBox="0 0 14 15" fill="none" xmlns="http://www.w3.org/2000/svg">
<path d="M6 13.6562H1.34375C0.96875 13.6562 0.645833 13.5312 0.375 13.2812C0.125 13.0104 0 12.6979 0 12.3438V3C0 2.625 0.125 2.3125 0.375 2.0625C0.645833 1.79167 0.96875 1.65625 1.34375 1.65625H2V0.34375H3.34375V1.65625H8.65625V0.34375H10V1.65625H10.6562C11.0312 1.65625 11.3438 1.79167 11.5938 2.0625C11.8646 2.3125 12 2.625 12 3V7H10.6562V5.65625H1.34375V12.3438H6V13.6562ZM12.75 10.3125L13.2188 9.84375C13.3438 9.71875 13.4062 9.5625 13.4062 9.375C13.4062 9.1875 13.3438 9.03125 13.2188 8.90625L12.75 8.4375C12.625 8.3125 12.4688 8.25 12.2812 8.25C12.0938 8.25 11.9375 8.3125 11.8125 8.4375L11.3438 8.90625L12.75 10.3125ZM12.2812 10.8125L8.75 14.3438H7.34375V12.9062L10.875 9.375L12.2812 10.8125Z" fill="black"/>
</svg>
