<svg width="16" height="12" viewBox="0 0 16 12" fill="none" xmlns="http://www.w3.org/2000/svg">
<path d="M14.6562 4H16V5.34375H14.6562V6.65625H13.3438V5.34375H12V4H13.3438V2.65625H14.6562V4ZM5.34375 6C4.84375 6 4.38542 5.88542 3.96875 5.65625C3.57292 5.40625 3.25 5.08333 3 4.6875C2.77083 4.27083 2.65625 3.82292 2.65625 3.34375C2.65625 2.84375 2.77083 2.39583 3 2C3.25 1.58333 3.57292 1.26042 3.96875 1.03125C4.38542 0.78125 4.84375 0.65625 5.34375 0.65625C5.82292 0.65625 6.26042 0.78125 6.65625 1.03125C7.07292 1.26042 7.39583 1.58333 7.625 2C7.875 2.39583 8 2.84375 8 3.34375C8 3.82292 7.875 4.27083 7.625 4.6875C7.39583 5.08333 7.07292 5.40625 6.65625 5.65625C6.26042 5.88542 5.82292 6 5.34375 6ZM5.34375 6.65625C5.69792 6.65625 6.10417 6.69792 6.5625 6.78125C7.02083 6.84375 7.48958 6.94792 7.96875 7.09375C8.44792 7.23958 8.88542 7.41667 9.28125 7.625C9.69792 7.83333 10.0312 8.08333 10.2812 8.375C10.5312 8.66667 10.6562 8.98958 10.6562 9.34375V11.3438H0V9.34375C0 8.98958 0.125 8.66667 0.375 8.375C0.625 8.08333 0.947917 7.83333 1.34375 7.625C1.76042 7.41667 2.20833 7.23958 2.6875 7.09375C3.16667 6.94792 3.63542 6.84375 4.09375 6.78125C4.57292 6.69792 4.98958 6.65625 5.34375 6.65625ZM8.34375 0.6875C8.78125 0.75 9.17708 0.90625 9.53125 1.15625C9.88542 1.40625 10.1562 1.71875 10.3438 2.09375C10.5521 2.46875 10.6562 2.88542 10.6562 3.34375C10.6562 3.78125 10.5521 4.19792 10.3438 4.59375C10.1562 4.96875 9.88542 5.28125 9.53125 5.53125C9.17708 5.76042 8.78125 5.90625 8.34375 5.96875C8.65625 5.61458 8.89583 5.21875 9.0625 4.78125C9.25 4.32292 9.34375 3.84375 9.34375 3.34375C9.34375 2.84375 9.25 2.36458 9.0625 1.90625C8.89583 1.44792 8.65625 1.04167 8.34375 0.6875ZM11.0312 7.21875C11.4479 7.36458 11.8229 7.54167 12.1562 7.75C12.5104 7.95833 12.7917 8.19792 13 8.46875C13.2292 8.71875 13.3438 9.01042 13.3438 9.34375V11.3438H12V9.34375C12 8.90625 11.9062 8.51042 11.7188 8.15625C11.5521 7.80208 11.3229 7.48958 11.0312 7.21875Z" fill="black"/>
</svg>
