<svg width="16" height="16" viewBox="0 0 16 16" fill="none" xmlns="http://www.w3.org/2000/svg">
<path d="M9.05469 15.0664C8.77344 15.3477 8.42188 15.4883 8 15.4883C7.57812 15.4883 7.21484 15.3477 6.91016 15.0664C6.62891 14.7617 6.48828 14.4102 6.48828 14.0117H9.47656C9.47656 14.4336 9.33594 14.7852 9.05469 15.0664ZM12.5 7.26172V10.9883L14.0117 12.5V13.2383H1.98828V12.5L3.5 10.9883V7.26172C3.5 6.08984 3.79297 5.07031 4.37891 4.20312C4.98828 3.33594 5.82031 2.77344 6.875 2.51562V1.98828C6.875 1.68359 6.98047 1.42578 7.19141 1.21484C7.40234 0.980469 7.67188 0.863281 8 0.863281C8.32812 0.863281 8.59766 0.980469 8.80859 1.21484C9.01953 1.42578 9.125 1.68359 9.125 1.98828V2.51562C10.1797 2.77344 11 3.33594 11.5859 4.20312C12.1953 5.07031 12.5 6.08984 12.5 7.26172ZM13.9766 6.875C13.9297 6.03125 13.6484 5.14063 13.1328 4.20312C12.6172 3.26562 12.0195 2.55078 11.3398 2.05859L12.3945 1.00391C14.3398 2.50391 15.3711 4.46094 15.4883 6.875H13.9766ZM4.69531 2.05859C4.01562 2.55078 3.40625 3.26562 2.86719 4.20312C2.35156 5.14063 2.07031 6.03125 2.02344 6.875H0.511719C0.628906 4.46094 1.66016 2.50391 3.60547 1.00391L4.69531 2.05859Z" fill="black"/>
</svg>
