<svg width="18" height="17" viewBox="0 0 18 17" fill="none" xmlns="http://www.w3.org/2000/svg">
<path d="M3.89371 0.0344238H14.7269C16.3729 0.0344238 17.6897 1.35115 17.6897 2.9971V13.8304C17.6897 15.4763 16.3729 16.793 14.7269 16.793H3.89371C2.24776 16.793 0.93103 15.4763 0.93103 13.8304V2.9971C0.93103 1.35115 2.24776 0.0344238 3.89371 0.0344238Z" fill="#FA0F00"/>
<path fill-rule="evenodd" clip-rule="evenodd" d="M14.295 9.70057C13.5665 8.94411 11.6577 9.1844 10.9997 9.26723C10.9548 9.27288 10.9158 9.27779 10.8833 9.28161C10.1602 8.5873 9.66071 7.75321 9.46601 7.42807L9.44695 7.39626C9.71627 6.58825 9.89577 5.78024 9.92575 4.91245C9.92575 4.16427 9.62652 3.35632 8.78852 3.35632C8.48929 3.35632 8.21991 3.53582 8.07026 3.77522C7.71119 4.40374 7.86078 5.66063 8.42939 6.94745L8.36909 7.11781C8.06154 7.98774 7.7496 8.87008 6.96301 10.359C6.09516 10.718 4.26965 11.556 4.12 12.4538C4.06017 12.7231 4.14992 12.9925 4.3594 13.2019C4.56889 13.3815 4.8382 13.4713 5.10758 13.4713C6.21483 13.4713 7.29216 11.9451 8.04034 10.6582C8.66879 10.4488 9.65637 10.1495 10.6439 9.96989C11.811 10.9874 12.8285 11.137 13.3672 11.137C14.0854 11.137 14.3548 10.8377 14.4446 10.5684C14.5941 10.2692 14.5044 9.93997 14.295 9.70057ZM13.5467 10.2094C13.5168 10.4188 13.2476 10.6283 12.7687 10.5086C12.2001 10.359 11.6914 10.0896 11.2425 9.73049C11.6315 9.67059 12.4993 9.58084 13.1278 9.70057C13.3672 9.76041 13.6066 9.91006 13.5467 10.2094ZM8.78852 3.89496C8.69877 3.89496 8.60896 3.95479 8.54912 4.04454C8.39947 4.31386 8.30966 5.15185 8.7586 6.34892C8.96802 5.75038 9.08775 5.122 9.11767 4.49349C9.11767 4.22411 9.05784 3.89496 8.78852 3.89496ZM8.48929 9.85022C8.72869 9.37142 9.0579 8.53343 9.17757 8.1743C9.44689 8.62311 9.89577 9.16188 10.1352 9.40128C10.1352 9.41334 9.98491 9.44964 9.75845 9.50432C9.4223 9.58548 8.9184 9.70715 8.48929 9.85022ZM4.92802 12.9026C5.31707 12.9026 6.03533 12.1845 6.72361 11.0473C5.52655 11.5859 4.74845 12.1545 4.65863 12.5735C4.62872 12.6932 4.65863 12.7829 4.74845 12.8428C4.80828 12.8727 4.86818 12.9026 4.92802 12.9026Z" fill="white"/>
</svg>
