<svg width="18" height="17" viewBox="0 0 18 17" fill="none" xmlns="http://www.w3.org/2000/svg">
<path d="M2.32732 0.0344238H16.2934C17.0645 0.0344238 17.6897 0.659575 17.6897 1.43071V15.3967C17.6897 16.1679 17.0645 16.793 16.2934 16.793H2.32732C1.55618 16.793 0.93103 16.1679 0.93103 15.3968V1.43071C0.93103 0.659575 1.55618 0.0344238 2.32732 0.0344238Z" fill="url(#paint0_linear_81_7654)"/>
<path fill-rule="evenodd" clip-rule="evenodd" d="M12.0875 4.51355C11.3599 3.97035 10.4642 3.70582 9.56086 3.76727H5.89655V13.0689H7.69426V9.78014H9.44958C10.0886 9.79383 10.7222 9.65965 11.3018 9.38793C11.8088 9.14963 12.2365 8.76855 12.5333 8.29065C12.8266 7.8044 12.977 7.24425 12.9671 6.67527C13.0187 5.85678 12.6944 5.05975 12.0875 4.51355ZM9.23993 8.35934H7.69277V5.20716H9.29747C10.4793 5.20716 11.0702 5.71968 11.0702 6.74472C11.1001 7.19503 10.9308 7.63562 10.6077 7.94806C10.2171 8.24931 9.73042 8.39565 9.23993 8.35934Z" fill="white"/>
<defs>
<linearGradient id="paint0_linear_81_7654" x1="-5.628" y1="4.41139" x2="5.30801" y2="23.3521" gradientUnits="userSpaceOnUse">
<stop stop-color="#CA4C28"/>
<stop offset="0.5" stop-color="#C5401E"/>
<stop offset="1" stop-color="#B62F14"/>
</linearGradient>
</defs>
</svg>
