<svg width="18" height="17" viewBox="0 0 18 17" fill="none" xmlns="http://www.w3.org/2000/svg">
<path d="M3.35413 0.0344238H14.4549C16.138 0.0344238 17.4987 1.39517 17.4987 3.07819V13.7493C17.4987 15.4323 16.138 16.793 14.4549 16.793H3.35413C1.67111 16.793 0.310364 15.4323 0.310364 13.7493V3.07819C0.310364 1.39517 1.67111 0.0344238 3.35413 0.0344238Z" fill="#001E36"/>
<path fill-rule="evenodd" clip-rule="evenodd" d="M4.17773 4.4174V11.7869C4.17773 11.8514 4.20638 11.88 4.26368 11.88H5.62442H5.65307C5.7032 11.8728 5.73901 11.8299 5.73185 11.7797V9.4808C5.86792 9.4808 5.96819 9.4808 6.0398 9.48796C6.11142 9.49512 6.226 9.49512 6.39786 9.49512H6.39789C6.98516 9.49512 7.5223 9.43067 8.0093 9.25162C8.47482 9.07974 8.87588 8.77894 9.16235 8.37788C9.44882 7.97682 9.59206 7.46833 9.59206 6.85242C9.59206 6.53014 9.53476 6.22218 9.42734 5.92138C9.31275 5.61343 9.1337 5.33412 8.90453 5.10494C8.63238 4.83995 8.30293 4.63942 7.94484 4.51767C7.54378 4.36727 7.05678 4.29565 6.46951 4.29565C6.25466 4.29565 6.0398 4.29565 5.81779 4.30282C5.7106 4.30627 5.60676 4.30806 5.50625 4.30979C5.39857 4.31165 5.29472 4.31344 5.19471 4.31714C5.10092 4.32061 5.01051 4.3224 4.92264 4.32414C4.82935 4.32599 4.73893 4.32778 4.65041 4.33146C4.48569 4.33863 4.3711 4.33863 4.24935 4.33863C4.19922 4.33863 4.17773 4.36727 4.17773 4.4174ZM5.73901 8.12722V5.72085C5.78914 5.71369 5.8894 5.70653 6.03264 5.71369C6.16872 5.70653 6.33344 5.70653 6.51964 5.70653C6.81328 5.69937 7.09975 5.74234 7.36474 5.84977C7.57243 5.92855 7.74431 6.07178 7.86606 6.25799C7.98065 6.45136 8.03795 6.67337 8.03078 6.89539C8.03078 7.21051 7.95917 7.45401 7.80877 7.63305C7.65121 7.8121 7.45068 7.94817 7.2215 8.01263C6.95651 8.09857 6.6772 8.14154 6.39789 8.14154H6.01832C5.93855 8.14154 5.85261 8.13537 5.7605 8.12876C5.75337 8.12825 5.74621 8.12773 5.73901 8.12722Z" fill="#31A8FF"/>
<path d="M14.061 7.69034C13.8462 7.57576 13.617 7.49698 13.3735 7.44684C13.1085 7.38955 12.8435 7.35374 12.5714 7.35374C12.4282 7.34658 12.2778 7.36806 12.1417 7.40387C12.0486 7.42536 11.9698 7.47549 11.9197 7.54711C11.8839 7.6044 11.8624 7.67602 11.8624 7.74048C11.8624 7.80493 11.891 7.86939 11.934 7.92668C11.9984 8.00546 12.0844 8.06992 12.1775 8.12005C12.3422 8.20599 12.5141 8.28477 12.686 8.35639C13.0727 8.4853 13.4451 8.66435 13.7889 8.8792C14.0252 9.0296 14.2186 9.23013 14.3547 9.47363C14.4693 9.70281 14.5266 9.95347 14.5194 10.2113C14.5266 10.5479 14.4263 10.8845 14.2401 11.1638C14.0396 11.4503 13.7603 11.6723 13.438 11.8012C13.087 11.9516 12.6573 12.0304 12.1417 12.0304C11.8122 12.0304 11.49 12.0017 11.1677 11.9373C10.917 11.8943 10.6664 11.8155 10.4372 11.7081C10.387 11.6795 10.3512 11.6293 10.3584 11.572V10.3259C10.3584 10.3044 10.3656 10.2758 10.387 10.2614C10.4085 10.2471 10.43 10.2543 10.4515 10.2686C10.7308 10.4333 11.0244 10.5479 11.3396 10.6195C11.6117 10.6911 11.8982 10.7269 12.1847 10.7269C12.4568 10.7269 12.6502 10.6911 12.7791 10.6267C12.8937 10.5766 12.9725 10.4548 12.9725 10.3259C12.9725 10.2256 12.9152 10.1325 12.8006 10.0394C12.686 9.94631 12.4496 9.83889 12.0987 9.70281C11.7335 9.5739 11.3969 9.40202 11.0817 9.18716C10.8597 9.0296 10.6735 8.82191 10.5374 8.57841C10.4229 8.34923 10.3656 8.09857 10.3727 7.8479C10.3727 7.53995 10.4587 7.24631 10.6162 6.98133C10.7953 6.69485 11.0603 6.46568 11.3682 6.32244C11.7048 6.15056 12.1274 6.07178 12.6358 6.07178C12.9295 6.07178 13.2303 6.09326 13.5239 6.13623C13.7388 6.16488 13.9465 6.22218 14.1398 6.30096C14.1685 6.30812 14.1971 6.33676 14.2114 6.36541C14.2186 6.39406 14.2258 6.42271 14.2258 6.45135V7.61873C14.2258 7.64737 14.2114 7.67602 14.19 7.69034C14.1255 7.70467 14.0897 7.70467 14.061 7.69034Z" fill="#31A8FF"/>
</svg>
