<svg width="18" height="16" viewBox="0 0 18 16" fill="none" xmlns="http://www.w3.org/2000/svg">
<path d="M3.97246 0.946276L8.70266 0.462769L13.4329 0.946276L17.095 5.6994L8.70266 15.1483L0.310364 5.6994L3.97246 0.946276Z" fill="#FDB300"/>
<path d="M3.70967 5.70764L8.70267 15.1483L0.310364 5.70764H3.70967Z" fill="#EA6C00"/>
<path d="M13.6957 5.70764L8.70266 15.1483L17.095 5.70764H13.6957Z" fill="#EA6C00"/>
<path d="M3.70966 5.70764H13.6957L8.70266 15.1483L3.70966 5.70764Z" fill="#FDAD00"/>
<path d="M8.70266 0.462769L3.97243 0.947027L3.70966 5.7076L8.70266 0.462769Z" fill="#FDD231"/>
<path d="M8.70262 0.462769L13.4328 0.947027L13.6956 5.7076L8.70262 0.462769Z" fill="#FDD231"/>
<path d="M17.095 5.70759L13.4328 0.947021L13.6957 5.70759H17.095Z" fill="#FDAD00"/>
<path d="M0.310364 5.70759L3.97244 0.947021L3.70966 5.70759H0.310364Z" fill="#FDAD00"/>
<path d="M8.70266 0.462769L3.70966 5.7076H13.6957L8.70266 0.462769Z" fill="#FEEEB7"/>
</svg>
