<svg width="8" height="16" viewBox="0 0 8 16" fill="none" xmlns="http://www.w3.org/2000/svg">
<path d="M6.5 4H7.5V11.6562C7.5 12.6771 7.14583 13.5521 6.4375 14.2812C5.72917 14.9896 4.86458 15.3438 3.84375 15.3438C2.82292 15.3438 1.94792 14.9896 1.21875 14.2812C0.510417 13.5521 0.15625 12.6771 0.15625 11.6562V3.34375C0.15625 2.61458 0.416667 1.98958 0.9375 1.46875C1.47917 0.927083 2.11458 0.65625 2.84375 0.65625C3.57292 0.65625 4.19792 0.927083 4.71875 1.46875C5.23958 1.98958 5.5 2.61458 5.5 3.34375V10.3438C5.5 10.8021 5.33333 11.1979 5 11.5312C4.6875 11.8438 4.30208 12 3.84375 12C3.38542 12 2.98958 11.8438 2.65625 11.5312C2.32292 11.1979 2.15625 10.8021 2.15625 10.3438V4H3.15625V10.3438C3.15625 10.5312 3.21875 10.6875 3.34375 10.8125C3.48958 10.9375 3.65625 11 3.84375 11C4.03125 11 4.1875 10.9375 4.3125 10.8125C4.4375 10.6875 4.5 10.5312 4.5 10.3438V3.34375C4.5 2.88542 4.33333 2.48958 4 2.15625C3.6875 1.82292 3.30208 1.65625 2.84375 1.65625C2.38542 1.65625 1.98958 1.82292 1.65625 2.15625C1.32292 2.48958 1.15625 2.88542 1.15625 3.34375V11.6562C1.15625 12.3854 1.41667 13.0208 1.9375 13.5625C2.47917 14.0833 3.11458 14.3438 3.84375 14.3438C4.57292 14.3438 5.19792 14.0833 5.71875 13.5625C6.23958 13.0208 6.5 12.3854 6.5 11.6562V4Z" fill="#5F646D"/>
</svg>
