<svg width="20" height="17" viewBox="0 0 20 17" fill="none" xmlns="http://www.w3.org/2000/svg">
<path d="M17.9296 4.56249C17.9557 4.66666 17.9687 4.83593 17.9687 5.0703C17.9687 6.9453 17.513 8.75519 16.6015 10.5C15.664 12.3489 14.3489 13.8203 12.6562 14.914C10.8073 16.138 8.68488 16.75 6.28905 16.75C3.99739 16.75 1.90104 16.138 0 14.914C0.286457 14.9401 0.611978 14.9531 0.97656 14.9531C2.8776 14.9531 4.58332 14.3672 6.09374 13.1953C5.18228 13.1953 4.3815 12.9284 3.6914 12.3945C3.00129 11.8606 2.52604 11.1901 2.26562 10.3828C2.52604 10.4088 2.77343 10.4219 3.00781 10.4219C3.37239 10.4219 3.73697 10.3828 4.10155 10.3047C3.16405 10.0963 2.38281 9.61456 1.75781 8.85936C1.13281 8.10415 0.820311 7.24478 0.820311 6.28124V6.20311C1.39323 6.54165 2.0052 6.72394 2.65624 6.74999C2.10937 6.35936 1.66666 5.86457 1.32812 5.26561C0.989581 4.66666 0.820311 4.00911 0.820311 3.29296C0.820311 2.57682 1.01562 1.89323 1.40625 1.24219C2.42187 2.51822 3.66536 3.53385 5.13671 4.28905C6.60806 5.04426 8.17706 5.46093 9.84373 5.53905C9.79164 5.22655 9.7656 4.91405 9.7656 4.60155C9.7656 3.87239 9.94789 3.1888 10.3125 2.55078C10.6771 1.91276 11.1718 1.41146 11.7968 1.04687C12.4218 0.682291 13.0989 0.5 13.8281 0.5C14.427 0.5 14.9804 0.617187 15.4882 0.851562C15.9961 1.08594 16.4453 1.39844 16.8359 1.78906C17.7734 1.60677 18.6458 1.28125 19.4531 0.812499C19.1406 1.77604 18.5416 2.53125 17.6562 3.07812C18.4375 2.97395 19.2187 2.7526 20 2.41406C19.427 3.24739 18.7369 3.96353 17.9296 4.56249Z" fill="#00A2F3"/>
</svg>
