<svg width="14" height="14" viewBox="0 0 14 14" fill="none" xmlns="http://www.w3.org/2000/svg">
<path d="M9.65625 8.34375H13.6562V12.3438H12.3438V11C11.0104 12.7708 9.22917 13.6562 7 13.6562C5.39583 13.6562 3.97917 13.1562 2.75 12.1562C1.54167 11.1354 0.78125 9.86458 0.46875 8.34375H1.84375C2.13542 9.48958 2.76042 10.4479 3.71875 11.2188C4.67708 11.9688 5.77083 12.3438 7 12.3438C7.95833 12.3438 8.84375 12.1042 9.65625 11.625C10.4896 11.125 11.1354 10.4688 11.5938 9.65625H9.65625V8.34375ZM4.34375 5.65625H0.34375V1.65625H1.65625V3C2.98958 1.22917 4.77083 0.34375 7 0.34375C8.60417 0.34375 10.0104 0.854167 11.2188 1.875C12.4479 2.875 13.2188 4.13542 13.5312 5.65625H12.1562C11.8646 4.51042 11.2396 3.5625 10.2812 2.8125C9.32292 2.04167 8.22917 1.65625 7 1.65625C6.04167 1.65625 5.14583 1.90625 4.3125 2.40625C3.5 2.88542 2.86458 3.53125 2.40625 4.34375H4.34375V5.65625ZM5.59375 8.40625C5.19792 8.01042 5 7.54167 5 7C5 6.45833 5.19792 5.98958 5.59375 5.59375C5.98958 5.19792 6.45833 5 7 5C7.54167 5 8.01042 5.19792 8.40625 5.59375C8.80208 5.98958 9 6.45833 9 7C9 7.54167 8.80208 8.01042 8.40625 8.40625C8.01042 8.80208 7.54167 9 7 9C6.45833 9 5.98958 8.80208 5.59375 8.40625Z" fill="black"/>
</svg>
