<svg width="92" height="36" viewBox="0 0 92 36" fill="none" xmlns="http://www.w3.org/2000/svg">
<mask id="mask0_9_16152" style="mask-type:luminance" maskUnits="userSpaceOnUse" x="0" y="0" width="36" height="36">
<rect width="35.823" height="36" rx="10" fill="white"/>
</mask>
<g mask="url(#mask0_9_16152)">
<rect width="35.823" height="36" fill="url(#paint0_radial_9_16152)"/>
<ellipse cx="9.06204" cy="9.08439" rx="9.06204" ry="9.08439" transform="matrix(0.864955 -0.501849 0.498153 0.867089 5.59717 14.7206)" fill="white" fill-opacity="0.01"/>
<mask id="mask1_9_16152" style="mask-type:luminance" maskUnits="userSpaceOnUse" x="8" y="8" width="20" height="20">
<ellipse cx="9.06204" cy="9.08439" rx="9.06204" ry="9.08439" transform="matrix(0.864955 -0.501849 0.498153 0.867089 5.59717 14.7206)" fill="white"/>
</mask>
<g mask="url(#mask1_9_16152)">
<ellipse opacity="0.5" cx="9.06204" cy="9.08439" rx="9.06204" ry="9.08439" transform="matrix(0.864955 -0.501849 0.498153 0.867089 5.59717 14.7206)" fill="white"/>
<ellipse opacity="0.6" cx="9.06204" cy="9.08439" rx="9.06204" ry="9.08439" transform="matrix(0.864955 -0.501849 0.498153 0.867089 11.6309 3.60376)" fill="white"/>
<ellipse opacity="0.7" cx="9.06204" cy="9.08439" rx="9.06204" ry="9.08439" transform="matrix(0.864955 -0.501849 0.498153 0.867089 13.1396 16.2365)" fill="white"/>
</g>
</g>
<path fill-rule="evenodd" clip-rule="evenodd" d="M49.3215 25.3637H45.1855V10.8217H51.2629C52.9581 10.8217 54.2986 11.2409 55.2846 12.0791C56.2706 12.9173 56.7636 14.1045 56.7636 15.6407C56.7636 17.2049 56.2572 18.4242 55.2446 19.2986C55.0501 19.4666 54.8437 19.6184 54.6253 19.7541L57.3943 25.3637H52.8105L50.6229 20.6102H49.3215V25.3637Z" fill="black"/>
<path d="M49.3213 17.7746V13.7749H50.7832C51.4422 13.7751 51.913 13.9452 52.1955 14.2851C52.478 14.625 52.6193 15.1164 52.6193 15.7593C52.6152 16.4102 52.4729 16.9089 52.1924 17.2552C51.912 17.6014 51.4422 17.7746 50.7832 17.7746H49.3213Z" fill="white"/>
<path d="M57.854 20.4017C57.854 22.0199 58.3738 23.3007 59.4134 24.2442C60.453 25.1877 61.8657 25.6594 63.6515 25.6594C64.8869 25.6594 65.9305 25.4393 66.7822 24.9991C67.634 24.5589 68.2265 23.9287 68.5596 23.1085L65.4847 21.6962C65.2918 22.003 65.0361 22.2734 64.7177 22.5075C64.3993 22.7416 64.0187 22.8586 63.5759 22.8586C63.0178 22.8586 62.585 22.6722 62.2775 22.2993C61.97 21.9265 61.8162 21.3615 61.8162 20.6044V19.826C61.8162 19.0655 61.9552 18.4993 62.2333 18.1273C62.5114 17.7554 62.9052 17.5694 63.4149 17.5694C63.8801 17.5694 64.238 17.7076 64.4886 17.9839C64.7391 18.2601 64.8622 18.6069 64.858 19.024V19.2135H60.4467V21.062H68.7663V19.9312C68.7663 18.3365 68.2939 17.09 67.3492 16.1916C66.4045 15.2931 65.1132 14.8439 63.4755 14.8439C61.8342 14.8439 60.4869 15.3155 59.4338 16.2585C58.3806 17.2015 57.854 18.4761 57.854 20.0821V20.4017Z" fill="black"/>
<path d="M68.9565 15.1581L72.8555 25.3637H76.7648L80.6308 15.1581H77.0927L75.3389 20.3073C75.2782 20.5195 75.2303 20.7099 75.1951 20.8785C75.1599 21.047 75.1301 21.2281 75.1058 21.4218H75.0453C75.0207 21.2281 74.9928 21.046 74.9616 20.8753C74.9304 20.7047 74.8803 20.5154 74.8114 20.3073L73.0833 15.1581H68.9565Z" fill="black"/>
<path d="M81.3579 21.327C81.3579 22.853 81.6987 23.9447 82.3802 24.602C83.0617 25.2594 83.9145 25.5881 84.9387 25.5881C85.6416 25.5881 86.2554 25.4661 86.78 25.222C87.3045 24.978 87.687 24.6546 87.9274 24.2519H87.9682L88.0168 25.3637H91.9121V15.1581H87.9063V21.6119C87.7919 21.9015 87.6075 22.148 87.3531 22.3515C87.0988 22.555 86.8121 22.6567 86.493 22.6567C86.1616 22.6567 85.8915 22.5569 85.6827 22.3573C85.4739 22.1577 85.3695 21.778 85.3695 21.218V15.1581H81.3579V21.327Z" fill="black"/>
<defs>
<radialGradient id="paint0_radial_9_16152" cx="0" cy="0" r="1" gradientUnits="userSpaceOnUse" gradientTransform="translate(6.01531 -9.2208) rotate(50.6936) scale(50.0951 50.047)">
<stop stop-color="#F66254"/>
<stop offset="1" stop-color="#0052FF"/>
</radialGradient>
</defs>
</svg>
